<?xml version="1.0" encoding="UTF-8" standalone="no"?>
<!DOCTYPE svg PUBLIC "-//W3C//DTD SVG 1.1//EN" "http://www.w3.org/Graphics/SVG/1.1/DTD/svg11.dtd">
<svg xmlns:dc="http://purl.org/dc/elements/1.1/" xmlns:xl="http://www.w3.org/1999/xlink" xmlns="http://www.w3.org/2000/svg" version="1.1" viewBox="985.6917 4772.835 272.38144 274.09766" width="272.38144" height="274.09766">
  <defs/>
  <metadata> Produced by OmniGraffle 7.9.4 
    <dc:date>2019-05-24 18:12:06 +0000</dc:date>
  </metadata>
  <g id="Canvas_3" stroke="none" stroke-opacity="1" fill-opacity="1" fill="none" stroke-dasharray="none">
    <title>Canvas 3</title>
    <g id="Canvas_3: Layer 1">
      <title>Layer 1</title>
      <g id="Graphic_1074">
        <path d="M 1251.4366 4909.882 C 1251.4366 4981.429 1193.4327 5039.433 1121.8859 5039.433 C 1050.3351 5039.433 992.3351 4981.429 992.3351 4909.882 C 992.3351 4838.331 1050.3351 4780.331 1121.8859 4780.331 C 1193.4327 4780.331 1251.4366 4838.331 1251.4366 4909.882 L 1251.4366 4909.882" fill="#f8fbff"/>
      </g>
      <g id="Graphic_1073">
        <path d="M 1121.8859 4780.331 C 1113.1398 4780.331 1104.5968 4781.202 1096.3351 4782.8546 C 1155.6476 4794.722 1200.3351 4847.077 1200.3351 4909.882 C 1200.3351 4972.683 1155.6476 5025.042 1096.3351 5036.9054 C 1104.5968 5038.558 1113.1398 5039.433 1121.8859 5039.433 C 1193.4327 5039.433 1251.4366 4981.429 1251.4366 4909.882 C 1251.4366 4838.331 1193.4327 4780.331 1121.8859 4780.331 L 1121.8859 4780.331" fill="#e4eaf7"/>
      </g>
      <g id="Graphic_1071">
        <path d="M 1251.4288 4917.5343 C 1247.3156 4917.0656 1243.5929 4920.007 1243.1124 4924.12 C 1235.9757 4985.585 1183.8624 5031.933 1121.8859 5031.933 C 1059.8741 5031.933 1007.757 4985.554 1000.6515 4924.054 C 1000.1749 4919.9406 996.4562 4916.9796 992.339 4917.464 C 988.2257 4917.9406 985.2726 4921.6593 985.7491 4925.7765 C 993.7296 4994.847 1052.257 5046.933 1121.8859 5046.933 C 1191.4757 5046.933 1249.9991 4994.878 1258.0148 4925.847 C 1258.4913 4921.7335 1255.5421 4918.011 1251.4288 4917.5343 L 1251.4288 4917.5343" fill="black"/>
      </g>
      <g id="Graphic_1070">
        <path d="M 1121.8859 4772.835 C 1052.2335 4772.835 993.7023 4824.9406 985.7413 4894.038 C 985.2687 4898.1515 988.2218 4901.87 992.3351 4902.347 C 992.628 4902.382 992.9171 4902.3976 993.2023 4902.3976 C 996.9601 4902.3976 1000.2023 4899.577 1000.6437 4895.753 C 1007.7335 4834.2296 1059.8546 4787.835 1121.8859 4787.835 C 1183.9015 4787.835 1236.0226 4834.218 1243.1202 4895.7257 C 1243.5968 4899.839 1247.3116 4902.792 1251.4327 4902.3156 C 1255.5499 4901.843 1258.4991 4898.12 1258.0226 4894.007 C 1250.0499 4824.929 1191.5226 4772.835 1121.8859 4772.835 L 1121.8859 4772.835" fill="black"/>
      </g>
      <g id="Graphic_1068">
        <path d="M 1142.6322 4838.79 C 1142.6322 4847.0837 1137.7739 4854.223 1130.7533 4857.5105 C 1128.0587 4858.811 1125.0662 4859.5253 1121.8972 4859.5253 C 1118.6978 4859.5253 1115.6764 4858.8137 1112.9803 4857.5105 C 1105.993 4854.194 1101.1621 4847.055 1101.1621 4838.79 C 1101.1621 4827.3264 1110.4362 4818.055 1121.8972 4818.055 C 1133.3307 4818.055 1142.6322 4827.3264 1142.6322 4838.79 M 1130.7836 4838.79 C 1130.7836 4833.8726 1126.7844 4829.904 1121.8972 4829.904 C 1116.9795 4829.904 1113.0107 4833.8726 1113.0107 4838.79 C 1113.0107 4843.708 1116.9795 4847.6767 1121.8972 4847.6767 C 1126.7844 4847.6767 1130.7836 4843.708 1130.7836 4838.79" fill="white"/>
      </g>
      <g id="Graphic_1067">
        <path d="M 1089.9947 4880.289 C 1091.4136 4881.86 1092.2757 4883.934 1092.2757 4886.2136 C 1092.2757 4888.4974 1091.4165 4890.5397 1090.0237 4892.109 C 1088.424 4893.946 1086.0245 4895.1 1083.3892 4895.1 C 1078.4716 4895.1 1074.5027 4891.131 1074.5027 4886.2136 L 1074.5027 4886.1847 C 1074.5317 4881.267 1078.4716 4877.327 1083.3892 4877.327 C 1086.0288 4877.327 1088.3922 4878.454 1089.9947 4880.289" fill="white"/>
      </g>
      <g id="Graphic_1066">
        <path d="M 1169.2612 4886.1847 L 1169.2612 4886.2136 C 1169.2612 4891.131 1165.2924 4895.1 1160.3748 4895.1 C 1157.7352 4895.1 1155.3718 4893.946 1153.7692 4892.109 L 1153.7403 4892.109 C 1152.3475 4890.5397 1151.4883 4888.4945 1151.4883 4886.2136 C 1151.4883 4883.934 1152.3475 4881.86 1153.7692 4880.289 C 1155.4022 4878.454 1157.7713 4877.327 1160.3748 4877.327 C 1165.2924 4877.327 1169.2323 4881.267 1169.2612 4886.1847" fill="white"/>
      </g>
      <g id="Graphic_1065">
        <path d="M 1112.9803 4892.109 L 1090.0237 4892.109 C 1091.4165 4890.5397 1092.2757 4888.4945 1092.2757 4886.2136 C 1092.2757 4883.934 1091.4165 4881.86 1089.9947 4880.289 L 1153.7692 4880.289 C 1152.3503 4881.86 1151.4883 4883.934 1151.4883 4886.2136 C 1151.4883 4888.4974 1152.3475 4890.5397 1153.7403 4892.109 L 1112.9803 4892.109" fill="white"/>
      </g>
      <g id="Graphic_1064">
        <path d="M 1130.7533 4880.2604 L 1130.7533 4857.5105 C 1128.0587 4858.811 1125.0662 4859.5253 1121.8972 4859.5253 C 1118.6978 4859.5253 1115.6764 4858.8137 1112.9803 4857.5105 L 1112.9803 4880.289 L 1130.7533 4880.289 L 1130.7533 4880.2604" fill="#d7e9ff"/>
      </g>
      <g id="Graphic_1063">
        <path d="M 1184.072 4933.579 L 1178.1477 4935.948 L 1178.1477 4939.5034 C 1178.1477 4957.5135 1163.5741 4972.087 1145.564 4972.087 L 1142.6322 4972.087 C 1138.9295 4972.087 1135.6449 4970.399 1133.4493 4967.7624 C 1131.7874 4965.719 1130.7533 4963.1124 1130.7533 4960.2385 L 1130.7533 4892.109 L 1112.9803 4892.109 L 1112.9803 4960.2095 C 1112.9803 4964.326 1110.9077 4967.9375 1107.7677 4970.072 C 1105.8686 4971.3465 1103.5906 4972.087 1101.1317 4972.087 L 1098.2 4972.087 C 1080.1898 4972.087 1065.6163 4957.5135 1065.6163 4939.5034 L 1065.6163 4935.948 L 1059.692 4933.579 L 1053.7677 4935.948 L 1053.7677 4939.5034 C 1053.7677 4968.9774 1077.6153 4992.822 1107.0864 4992.822 L 1113.0107 4992.822 C 1117.898 4992.822 1121.8972 4996.791 1121.8972 5001.7086 C 1121.8972 4996.791 1125.866 4992.822 1130.7836 4992.822 L 1136.6776 4992.822 C 1166.1487 4992.822 1189.9963 4968.9774 1189.9963 4939.5034 L 1189.9963 4935.948 L 1184.072 4933.579" fill="#d7e9ff"/>
      </g>
      <g id="Graphic_1062">
        <path d="M 1184.072 4912.844 L 1198.8827 4939.5034 L 1189.9963 4935.948 L 1184.072 4933.579 L 1178.1477 4935.948 L 1169.2612 4939.5034 L 1184.072 4912.844" fill="white"/>
      </g>
      <g id="Graphic_1061">
        <path d="M 1059.692 4912.844 L 1074.5027 4939.5034 L 1065.6163 4935.948 L 1059.692 4933.579 L 1053.7677 4935.948 L 1044.8812 4939.5034 L 1059.692 4912.844" fill="white"/>
      </g>
      <g id="Group_1013">
        <g id="Graphic_1060">
          <path d="M 1121.8827 5004.671 C 1120.244 5004.671 1118.9206 5003.3473 1118.9206 5001.7086 C 1118.9206 4995.174 1124.2345 4989.86 1130.7692 4989.86 C 1132.4064 4989.86 1133.7313 4991.1834 1133.7313 4992.822 C 1133.7313 4994.461 1132.4064 4995.784 1130.7692 4995.784 C 1127.5018 4995.784 1124.8449 4998.441 1124.8449 5001.7086 C 1124.8449 5003.3473 1123.52 5004.671 1121.8827 5004.671" fill="#116fff"/>
        </g>
        <g id="Graphic_1059">
          <path d="M 1121.8827 5004.671 C 1120.244 5004.671 1118.9206 5003.3473 1118.9206 5001.7086 C 1118.9206 4998.441 1116.2621 4995.784 1112.9963 4995.784 C 1111.3575 4995.784 1110.0341 4994.461 1110.0341 4992.822 C 1110.0341 4991.1834 1111.3575 4989.86 1112.9963 4989.86 C 1119.5295 4989.86 1124.8449 4995.174 1124.8449 5001.7086 C 1124.8449 5003.3473 1123.52 5004.671 1121.8827 5004.671" fill="#116fff"/>
        </g>
        <g id="Graphic_1058">
          <path d="M 1136.6689 4995.784 C 1135.0316 4995.784 1133.7067 4994.461 1133.7067 4992.822 C 1133.7067 4991.1834 1135.0316 4989.86 1136.6689 4989.86 C 1164.4362 4989.86 1187.0255 4967.2707 1187.0255 4939.5034 C 1187.0255 4937.8647 1188.3503 4936.541 1189.9876 4936.541 C 1191.6263 4936.541 1192.9498 4937.8647 1192.9498 4939.5034 C 1192.9498 4970.538 1167.7035 4995.784 1136.6689 4995.784 L 1136.6689 4995.784" fill="#116fff"/>
        </g>
        <g id="Graphic_1057">
          <path d="M 1145.5669 4975.049 C 1143.9296 4975.049 1142.6048 4973.726 1142.6048 4972.087 C 1142.6048 4970.4483 1143.9296 4969.125 1145.5669 4969.125 C 1161.9007 4969.125 1175.1884 4955.837 1175.1884 4939.5034 C 1175.1884 4937.8647 1176.5133 4936.541 1178.1506 4936.541 C 1179.7893 4936.541 1181.1127 4937.8647 1181.1127 4939.5034 C 1181.1127 4959.1045 1165.168 4975.049 1145.5669 4975.049" fill="#116fff"/>
        </g>
        <g id="Graphic_1056">
          <path d="M 1136.6689 4995.784 L 1130.7692 4995.784 C 1129.1304 4995.784 1127.807 4994.461 1127.807 4992.822 C 1127.807 4991.1834 1129.1304 4989.86 1130.7692 4989.86 L 1136.6689 4989.86 C 1138.3076 4989.86 1139.631 4991.1834 1139.631 4992.822 C 1139.631 4994.461 1138.3076 4995.784 1136.6689 4995.784" fill="#116fff"/>
        </g>
        <g id="Graphic_1055">
          <path d="M 1169.267 4942.4655 C 1168.781 4942.4655 1168.2864 4942.347 1167.8337 4942.0924 C 1166.4032 4941.2983 1165.8883 4939.495 1166.6809 4938.067 L 1181.4917 4911.399 C 1182.2857 4909.97 1184.0908 4909.4494 1185.5183 4910.2464 C 1186.9488 4911.0404 1187.4637 4912.844 1186.6697 4914.2716 L 1171.8589 4940.9396 C 1171.318 4941.9145 1170.3098 4942.4655 1169.267 4942.4655" fill="#116fff"/>
        </g>
        <g id="Graphic_1054">
          <path d="M 1198.8943 4942.4655 C 1197.853 4942.4655 1196.8448 4941.9145 1196.3024 4940.9396 L 1181.4917 4914.2716 C 1180.6962 4912.844 1181.2111 4911.0375 1182.6444 4910.2464 C 1184.072 4909.4465 1185.88 4909.967 1186.6697 4911.399 L 1201.4804 4938.067 C 1202.2774 4939.495 1201.7625 4941.301 1200.3291 4942.0924 C 1199.875 4942.347 1199.3803 4942.4655 1198.8943 4942.4655 L 1198.8943 4942.4655" fill="#116fff"/>
        </g>
        <g id="Graphic_1053">
          <path d="M 1198.8914 4942.4655 C 1198.524 4942.4655 1198.1509 4942.4005 1197.7907 4942.256 L 1184.0807 4936.764 L 1170.372 4942.256 C 1168.8534 4942.859 1167.1293 4942.124 1166.5189 4940.6055 C 1165.9114 4939.0854 1166.6491 4937.3613 1168.1692 4936.751 L 1182.98 4930.821 C 1183.6901 4930.5374 1184.4726 4930.5374 1185.1828 4930.821 L 1199.9936 4936.751 C 1201.5137 4937.3613 1202.2513 4939.0854 1201.6439 4940.6055 C 1201.1781 4941.764 1200.0673 4942.4655 1198.8914 4942.4655 L 1198.8914 4942.4655" fill="#116fff"/>
        </g>
        <g id="Graphic_1052">
          <path d="M 1189.9876 4942.4655 C 1188.3503 4942.4655 1187.0255 4941.142 1187.0255 4939.5034 L 1187.0255 4935.9425 C 1187.0255 4934.305 1188.3503 4932.9803 1189.9876 4932.9803 C 1191.6263 4932.9803 1192.9498 4934.305 1192.9498 4935.9425 L 1192.9498 4939.5034 C 1192.9498 4941.142 1191.6263 4942.4655 1189.9876 4942.4655" fill="#116fff"/>
        </g>
        <g id="Graphic_1051">
          <path d="M 1178.1506 4942.4655 C 1176.5133 4942.4655 1175.1884 4941.142 1175.1884 4939.5034 L 1175.1884 4935.9425 C 1175.1884 4934.305 1176.5133 4932.9803 1178.1506 4932.9803 C 1179.7893 4932.9803 1181.1127 4934.305 1181.1127 4935.9425 L 1181.1127 4939.5034 C 1181.1127 4941.142 1179.7893 4942.4655 1178.1506 4942.4655" fill="#116fff"/>
        </g>
        <g id="Graphic_1050">
          <path d="M 1107.0951 4995.7814 C 1076.0605 4995.7814 1050.8142 4970.535 1050.8142 4939.5005 C 1050.8142 4937.862 1052.1376 4936.5384 1053.7764 4936.5384 C 1055.4136 4936.5384 1056.7385 4937.862 1056.7385 4939.5005 C 1056.7385 4967.268 1079.3278 4989.857 1107.0951 4989.857 C 1108.7324 4989.857 1110.0572 4991.1805 1110.0572 4992.819 C 1110.0572 4994.4565 1108.7324 4995.7814 1107.0951 4995.7814" fill="#116fff"/>
        </g>
        <g id="Graphic_1049">
          <path d="M 1098.197 4975.0463 C 1078.596 4975.0463 1062.6512 4959.1016 1062.6512 4939.5005 C 1062.6512 4937.862 1063.9747 4936.5384 1065.6134 4936.5384 C 1067.2507 4936.5384 1068.5755 4937.862 1068.5755 4939.5005 C 1068.5755 4955.834 1081.8633 4969.122 1098.197 4969.122 C 1099.8343 4969.122 1101.1592 4970.4454 1101.1592 4972.084 C 1101.1592 4973.7215 1099.8343 4975.0463 1098.197 4975.0463" fill="#116fff"/>
        </g>
        <g id="Graphic_1048">
          <path d="M 1112.9963 4995.7814 L 1107.0951 4995.7814 C 1105.4564 4995.7814 1104.133 4994.4565 1104.133 4992.819 C 1104.133 4991.1805 1105.4564 4989.857 1107.0951 4989.857 L 1112.9963 4989.857 C 1114.6335 4989.857 1115.9584 4991.1805 1115.9584 4992.819 C 1115.9584 4994.4565 1114.6335 4995.7814 1112.9963 4995.7814" fill="#116fff"/>
        </g>
        <g id="Graphic_1047">
          <path d="M 1074.497 4942.4627 C 1073.4541 4942.4627 1072.446 4941.9116 1071.9051 4940.937 L 1057.0943 4914.2687 C 1056.2974 4912.841 1056.8123 4911.0346 1058.2456 4910.2435 C 1059.6732 4909.441 1061.4811 4909.9643 1062.2723 4911.396 L 1077.083 4938.064 C 1077.8786 4939.492 1077.3636 4941.2983 1075.9303 4942.0895 C 1075.4776 4942.344 1074.983 4942.4627 1074.497 4942.4627" fill="#116fff"/>
        </g>
        <g id="Graphic_1046">
          <path d="M 1044.8697 4942.4627 C 1044.3837 4942.4627 1043.889 4942.344 1043.4349 4942.0895 C 1042.0044 4941.2954 1041.4895 4939.492 1042.2836 4938.064 L 1057.0943 4911.396 C 1057.8884 4909.967 1059.692 4909.4436 1061.1195 4910.2435 C 1062.55 4911.0375 1063.0649 4912.841 1062.2723 4914.2687 L 1047.4615 4940.937 C 1046.9192 4941.9116 1045.911 4942.4627 1044.8697 4942.4627 L 1044.8697 4942.4627" fill="#116fff"/>
        </g>
        <g id="Graphic_1045">
          <path d="M 1074.4941 4942.4627 C 1074.1267 4942.4627 1073.7535 4942.3976 1073.392 4942.253 L 1059.6833 4936.761 L 1045.9732 4942.253 C 1044.4545 4942.859 1042.7305 4942.1213 1042.1201 4940.6026 C 1041.5126 4939.0825 1042.2503 4937.3584 1043.7704 4936.748 L 1058.5812 4930.818 C 1059.2913 4930.5345 1060.0738 4930.5345 1060.784 4930.818 L 1075.5947 4936.748 C 1077.1149 4937.3584 1077.8525 4939.0825 1077.245 4940.6026 C 1076.7779 4941.761 1075.6671 4942.4627 1074.4941 4942.4627" fill="#116fff"/>
        </g>
        <g id="Graphic_1044">
          <path d="M 1053.7764 4942.4627 C 1052.1376 4942.4627 1050.8142 4941.138 1050.8142 4939.5005 L 1050.8142 4935.9396 C 1050.8142 4934.302 1052.1376 4932.9774 1053.7764 4932.9774 C 1055.4136 4932.9774 1056.7385 4934.302 1056.7385 4935.9396 L 1056.7385 4939.5005 C 1056.7385 4941.138 1055.4136 4942.4627 1053.7764 4942.4627" fill="#116fff"/>
        </g>
        <g id="Graphic_1043">
          <path d="M 1065.6134 4942.4627 C 1063.9747 4942.4627 1062.6512 4941.138 1062.6512 4939.5005 L 1062.6512 4935.9396 C 1062.6512 4934.302 1063.9747 4932.9774 1065.6134 4932.9774 C 1067.2507 4932.9774 1068.5755 4934.302 1068.5755 4935.9396 L 1068.5755 4939.5005 C 1068.5755 4941.138 1067.2507 4942.4627 1065.6134 4942.4627" fill="#116fff"/>
        </g>
        <g id="Graphic_1042">
          <path d="M 1101.1288 4975.0463 L 1098.197 4975.0463 C 1096.5583 4975.0463 1095.2349 4973.7215 1095.2349 4972.084 C 1095.2349 4970.4454 1096.5583 4969.122 1098.197 4969.122 L 1101.1288 4969.122 C 1102.7676 4969.122 1104.091 4970.4454 1104.091 4972.084 C 1104.091 4973.7215 1102.7676 4975.0463 1101.1288 4975.0463" fill="#116fff"/>
        </g>
        <g id="Graphic_1041">
          <path d="M 1145.5669 4975.049 L 1142.6178 4975.049 C 1140.979 4975.049 1139.6556 4973.726 1139.6556 4972.087 C 1139.6556 4970.4483 1140.979 4969.125 1142.6178 4969.125 L 1145.5669 4969.125 C 1147.2056 4969.125 1148.529 4970.4483 1148.529 4972.087 C 1148.529 4973.726 1147.2056 4975.049 1145.5669 4975.049" fill="#116fff"/>
        </g>
        <g id="Graphic_1040">
          <path d="M 1112.989 4963.183 C 1111.3517 4963.183 1110.0269 4961.8584 1110.0269 4960.221 L 1110.0269 4892.1205 C 1110.0269 4890.483 1111.3517 4889.1584 1112.989 4889.1584 C 1114.6278 4889.1584 1115.9512 4890.483 1115.9512 4892.1205 L 1115.9512 4960.221 C 1115.9512 4961.8584 1114.6278 4963.183 1112.989 4963.183" fill="#116fff"/>
        </g>
        <g id="Graphic_1039">
          <path d="M 1130.7619 4963.186 C 1129.1246 4963.186 1127.7998 4961.861 1127.7998 4960.224 L 1127.7998 4892.1205 C 1127.7998 4890.483 1129.1246 4889.1584 1130.7619 4889.1584 C 1132.4007 4889.1584 1133.7241 4890.483 1133.7241 4892.1205 L 1133.7241 4960.224 C 1133.7241 4961.861 1132.4007 4963.186 1130.7619 4963.186" fill="#116fff"/>
        </g>
        <g id="Graphic_1038">
          <path d="M 1112.989 4883.234 C 1111.3517 4883.234 1110.0269 4881.9107 1110.0269 4880.272 L 1110.0269 4857.5235 C 1110.0269 4855.885 1111.3517 4854.5614 1112.989 4854.5614 C 1114.6278 4854.5614 1115.9512 4855.885 1115.9512 4857.5235 L 1115.9512 4880.272 C 1115.9512 4881.9107 1114.6278 4883.234 1112.989 4883.234" fill="#116fff"/>
        </g>
        <g id="Graphic_1037">
          <path d="M 1130.7619 4883.234 C 1129.1246 4883.234 1127.7998 4881.9107 1127.7998 4880.272 L 1127.7998 4857.5235 C 1127.7998 4855.885 1129.1246 4854.5614 1130.7619 4854.5614 C 1132.4007 4854.5614 1133.7241 4855.885 1133.7241 4857.5235 L 1133.7241 4880.272 C 1133.7241 4881.9107 1132.4007 4883.234 1130.7619 4883.234" fill="#116fff"/>
        </g>
        <g id="Graphic_1036">
          <path d="M 1101.1288 4975.0463 C 1099.4916 4975.0463 1098.1667 4973.7215 1098.1667 4972.084 C 1098.1667 4970.4454 1099.4916 4969.122 1101.1288 4969.122 C 1106.0349 4969.122 1110.0269 4965.1286 1110.0269 4960.221 C 1110.0269 4958.5824 1111.3517 4957.259 1112.989 4957.259 C 1114.6278 4957.259 1115.9512 4958.5824 1115.9512 4960.221 C 1115.9512 4968.396 1109.3022 4975.0463 1101.1288 4975.0463" fill="#116fff"/>
        </g>
        <g id="Graphic_1035">
          <path d="M 1142.6178 4975.0463 C 1134.4415 4975.0463 1127.7882 4968.396 1127.7882 4960.221 C 1127.7882 4958.5824 1129.1131 4957.259 1130.7504 4957.259 C 1132.3891 4957.259 1133.7125 4958.5824 1133.7125 4960.221 C 1133.7125 4965.1286 1137.7088 4969.122 1142.6178 4969.122 C 1144.255 4969.122 1145.5799 4970.4454 1145.5799 4972.084 C 1145.5799 4973.7215 1144.255 4975.0463 1142.6178 4975.0463" fill="#116fff"/>
        </g>
        <g id="Graphic_1034">
          <path d="M 1153.7606 4895.0827 L 1090.0092 4895.0827 C 1088.3705 4895.0827 1087.047 4893.759 1087.047 4892.1205 C 1087.047 4890.483 1088.3705 4889.1584 1090.0092 4889.1584 L 1153.7577 4889.1584 C 1155.3964 4889.1584 1156.7198 4890.483 1156.7198 4892.1205 C 1156.7198 4893.759 1155.3964 4895.0827 1153.7606 4895.0827" fill="#116fff"/>
        </g>
        <g id="Graphic_1033">
          <path d="M 1153.7606 4883.2485 L 1090.0034 4883.2485 C 1088.3647 4883.2485 1087.0413 4881.925 1087.0413 4880.2864 C 1087.0413 4878.649 1088.3647 4877.324 1090.0034 4877.324 L 1153.7577 4877.324 C 1155.3964 4877.324 1156.7198 4878.649 1156.7198 4880.2864 C 1156.7198 4881.925 1155.3964 4883.2485 1153.7606 4883.2485" fill="#116fff"/>
        </g>
        <g id="Graphic_1032">
          <path d="M 1083.3805 4898.0593 C 1076.8459 4898.0593 1071.5319 4892.7454 1071.5319 4886.2107 C 1071.5319 4879.6775 1076.8459 4874.362 1083.3805 4874.362 C 1089.9137 4874.362 1095.2291 4879.6775 1095.2291 4886.2107 C 1095.2291 4892.7454 1089.9137 4898.0593 1083.3805 4898.0593 M 1083.3805 4880.2864 C 1080.1132 4880.2864 1077.4562 4882.9434 1077.4562 4886.2107 C 1077.4562 4889.478 1080.1132 4892.135 1083.3805 4892.135 C 1086.6479 4892.135 1089.3048 4889.478 1089.3048 4886.2107 C 1089.3048 4882.9434 1086.6435 4880.2864 1083.3805 4880.2864" fill="#116fff"/>
        </g>
        <g id="Graphic_1031">
          <path d="M 1160.3834 4898.0593 C 1153.8502 4898.0593 1148.5348 4892.7454 1148.5348 4886.2107 C 1148.5348 4879.6775 1153.8502 4874.362 1160.3834 4874.362 C 1166.9181 4874.362 1172.232 4879.6775 1172.232 4886.2107 C 1172.232 4892.7454 1166.9181 4898.0593 1160.3834 4898.0593 M 1160.3834 4880.2864 C 1157.1161 4880.2864 1154.4591 4882.9434 1154.4591 4886.2107 C 1154.4591 4889.478 1157.1161 4892.135 1160.3834 4892.135 C 1163.6508 4892.135 1166.3078 4889.478 1166.3078 4886.2107 C 1166.3078 4882.9434 1163.6508 4880.2864 1160.3834 4880.2864" fill="#116fff"/>
        </g>
        <g id="Graphic_1030">
          <path d="M 1121.8827 4862.4875 C 1108.8163 4862.4875 1098.1855 4851.8567 1098.1855 4838.79 C 1098.1855 4825.724 1108.8163 4815.093 1121.8827 4815.093 C 1134.9477 4815.093 1145.5799 4825.724 1145.5799 4838.79 C 1145.5799 4851.8567 1134.9477 4862.4875 1121.8827 4862.4875 M 1121.8827 4821.0173 C 1112.0807 4821.0173 1104.1098 4828.988 1104.1098 4838.79 C 1104.1098 4848.592 1112.0807 4856.563 1121.8827 4856.563 C 1131.6833 4856.563 1139.6556 4848.592 1139.6556 4838.79 C 1139.6556 4828.988 1131.6833 4821.0173 1121.8827 4821.0173" fill="#116fff"/>
        </g>
        <g id="Graphic_1029">
          <path d="M 1121.8827 4850.639 C 1115.348 4850.639 1110.0341 4845.325 1110.0341 4838.79 C 1110.0341 4832.2556 1115.348 4826.9416 1121.8827 4826.9416 C 1128.4159 4826.9416 1133.7313 4832.2556 1133.7313 4838.79 C 1133.7313 4845.325 1128.4159 4850.639 1121.8827 4850.639 M 1121.8827 4832.866 C 1118.6154 4832.866 1115.9584 4835.523 1115.9584 4838.79 C 1115.9584 4842.0576 1118.6154 4844.7145 1121.8827 4844.7145 C 1125.1486 4844.7145 1127.807 4842.0576 1127.807 4838.79 C 1127.807 4835.523 1125.1486 4832.866 1121.8827 4832.866" fill="#116fff"/>
        </g>
        <g id="Graphic_1028">
          <path d="M 1163.334 4841.7524 L 1121.8827 4841.7524 C 1120.244 4841.7524 1118.9206 4840.429 1118.9206 4838.79 C 1118.9206 4837.1515 1120.244 4835.828 1121.8827 4835.828 L 1163.334 4835.828 C 1164.9728 4835.828 1166.2962 4837.1515 1166.2962 4838.79 C 1166.2962 4840.429 1164.9728 4841.7524 1163.334 4841.7524" fill="#116fff"/>
        </g>
        <g id="Graphic_1027">
          <path d="M 1163.334 4865.458 C 1161.6967 4865.458 1160.3719 4864.135 1160.3719 4862.496 C 1160.3719 4860.859 1161.6967 4859.534 1163.334 4859.534 C 1168.2343 4859.534 1172.2205 4855.5435 1172.2205 4850.642 C 1172.2205 4845.743 1168.2343 4841.7524 1163.334 4841.7524 C 1161.6967 4841.7524 1160.3719 4840.429 1160.3719 4838.79 C 1160.3719 4837.1515 1161.6967 4835.828 1163.334 4835.828 C 1171.5016 4835.828 1178.1448 4842.4727 1178.1448 4850.642 C 1178.1448 4858.811 1171.5016 4865.458 1163.334 4865.458" fill="#116fff"/>
        </g>
        <g id="Graphic_1026">
          <path d="M 1163.3398 4865.444 L 1130.7692 4865.444 C 1129.1304 4865.444 1127.807 4864.119 1127.807 4862.4817 C 1127.807 4860.843 1129.1304 4859.5195 1130.7692 4859.5195 L 1163.3398 4859.5195 C 1164.9785 4859.5195 1166.302 4860.843 1166.302 4862.4817 C 1166.302 4864.119 1164.9785 4865.444 1163.3398 4865.444" fill="#116fff"/>
        </g>
        <g id="Graphic_1025">
          <path d="M 1074.4883 4889.15 C 1066.3178 4889.15 1059.6703 4882.505 1059.6703 4874.336 C 1059.6703 4866.167 1066.3178 4859.5195 1074.4883 4859.5195 C 1076.1256 4859.5195 1077.4504 4860.843 1077.4504 4862.4817 C 1077.4504 4864.119 1076.1256 4865.444 1074.4883 4865.444 C 1069.5851 4865.444 1065.5946 4869.4343 1065.5946 4874.336 C 1065.5946 4879.235 1069.5851 4883.2254 1074.4883 4883.2254 C 1076.1256 4883.2254 1077.4504 4884.55 1077.4504 4886.1876 C 1077.4504 4887.826 1076.1256 4889.15 1074.4883 4889.15" fill="#116fff"/>
        </g>
        <g id="Graphic_1024">
          <path d="M 1112.9963 4865.458 L 1074.4883 4865.458 C 1072.8496 4865.458 1071.5261 4864.135 1071.5261 4862.496 C 1071.5261 4860.859 1072.8496 4859.534 1074.4883 4859.534 L 1112.9963 4859.534 C 1114.6335 4859.534 1115.9584 4860.859 1115.9584 4862.496 C 1115.9584 4864.135 1114.6335 4865.458 1112.9963 4865.458" fill="#116fff"/>
        </g>
        <g id="Graphic_1023">
          <path d="M 1098.2086 4936.544 C 1090.0396 4936.544 1083.3921 4929.8995 1083.3921 4921.7305 C 1083.3921 4913.5614 1090.0396 4906.914 1098.2086 4906.914 C 1099.8459 4906.914 1101.1708 4908.2374 1101.1708 4909.876 C 1101.1708 4911.5134 1099.8459 4912.838 1098.2086 4912.838 C 1093.3055 4912.838 1089.3164 4916.829 1089.3164 4921.7305 C 1089.3164 4926.6293 1093.3055 4930.62 1098.2086 4930.62 C 1099.8459 4930.62 1101.1708 4931.9447 1101.1708 4933.582 C 1101.1708 4935.221 1099.8459 4936.544 1098.2086 4936.544" fill="#116fff"/>
        </g>
        <g id="Graphic_1022">
          <path d="M 1112.9963 4912.853 L 1098.2086 4912.853 C 1096.5699 4912.853 1095.2465 4911.529 1095.2465 4909.8906 C 1095.2465 4908.253 1096.5699 4906.9284 1098.2086 4906.9284 L 1112.9963 4906.9284 C 1114.6335 4906.9284 1115.9584 4908.253 1115.9584 4909.8906 C 1115.9584 4911.529 1114.6335 4912.853 1112.9963 4912.853" fill="#116fff"/>
        </g>
        <g id="Graphic_1021">
          <path d="M 1169.2771 4912.847 C 1167.6384 4912.847 1166.315 4911.5235 1166.315 4909.885 C 1166.315 4908.2475 1167.6384 4906.9226 1169.2771 4906.9226 C 1174.176 4906.9226 1178.1636 4902.932 1178.1636 4898.0304 C 1178.1636 4893.1315 1174.176 4889.141 1169.2771 4889.141 C 1167.6384 4889.141 1166.315 4887.816 1166.315 4886.179 C 1166.315 4884.54 1167.6384 4883.217 1169.2771 4883.217 C 1177.4433 4883.217 1184.0879 4889.8613 1184.0879 4898.0304 C 1184.0879 4906.1994 1177.4433 4912.847 1169.2771 4912.847" fill="#116fff"/>
        </g>
        <g id="Graphic_1020">
          <path d="M 1169.2771 4912.8325 L 1130.7692 4912.8325 C 1129.1304 4912.8325 1127.807 4911.5076 1127.807 4909.8703 C 1127.807 4908.2316 1129.1304 4906.908 1130.7692 4906.908 L 1169.2771 4906.908 C 1170.9144 4906.908 1172.2393 4908.2316 1172.2393 4909.8703 C 1172.2393 4911.5076 1170.9144 4912.8325 1169.2771 4912.8325" fill="#116fff"/>
        </g>
        <g id="Graphic_1019">
          <path d="M 1112.9963 4936.544 L 1098.2086 4936.544 C 1096.5699 4936.544 1095.2465 4935.221 1095.2465 4933.582 C 1095.2465 4931.9447 1096.5699 4930.62 1098.2086 4930.62 L 1112.9963 4930.62 C 1114.6335 4930.62 1115.9584 4931.9447 1115.9584 4933.582 C 1115.9584 4935.221 1114.6335 4936.544 1112.9963 4936.544" fill="#116fff"/>
        </g>
        <g id="Graphic_1018">
          <path d="M 1139.6195 4960.253 C 1137.9807 4960.253 1136.6573 4958.9295 1136.6573 4957.291 C 1136.6573 4955.6535 1137.9807 4954.3286 1139.6195 4954.3286 C 1144.5212 4954.3286 1148.5117 4950.3396 1148.5117 4945.4364 C 1148.5117 4940.5375 1144.5212 4936.547 1139.6195 4936.547 C 1137.9807 4936.547 1136.6573 4935.2236 1136.6573 4933.585 C 1136.6573 4931.9476 1137.9807 4930.623 1139.6195 4930.623 C 1147.7885 4930.623 1154.436 4937.2673 1154.436 4945.4364 C 1154.436 4953.607 1147.7885 4960.253 1139.6195 4960.253" fill="#116fff"/>
        </g>
        <g id="Graphic_1017">
          <path d="M 1139.6195 4960.2385 L 1130.7619 4960.2385 C 1129.1246 4960.2385 1127.7998 4958.915 1127.7998 4957.2763 C 1127.7998 4955.6376 1129.1246 4954.314 1130.7619 4954.314 L 1139.6195 4954.314 C 1141.2567 4954.314 1142.5816 4955.6376 1142.5816 4957.2763 C 1142.5816 4958.915 1141.2567 4960.2385 1139.6195 4960.2385" fill="#116fff"/>
        </g>
        <g id="Graphic_1016">
          <path d="M 1139.6195 4936.547 L 1130.7619 4936.547 C 1129.1246 4936.547 1127.7998 4935.2236 1127.7998 4933.585 C 1127.7998 4931.9476 1129.1246 4930.623 1130.7619 4930.623 L 1139.6195 4930.623 C 1141.2567 4930.623 1142.5816 4931.9476 1142.5816 4933.585 C 1142.5816 4935.2236 1141.2567 4936.547 1139.6195 4936.547" fill="#116fff"/>
        </g>
        <g id="Graphic_1015">
          <path d="M 1127.794 4986.886 C 1127.0361 4986.886 1126.2782 4986.5955 1125.6997 4986.0184 L 1113.8641 4974.1785 C 1112.7055 4973.02 1112.7055 4971.1484 1113.8641 4969.99 C 1115.0212 4968.8313 1116.8942 4968.8313 1118.0513 4969.99 L 1129.8883 4981.83 C 1131.0469 4982.9883 1131.0469 4984.86 1129.8883 4986.0184 C 1129.3112 4986.5955 1128.5533 4986.886 1127.794 4986.886" fill="#116fff"/>
        </g>
        <g id="Graphic_1014">
          <path d="M 1115.97 4986.886 C 1115.2106 4986.886 1114.4527 4986.5955 1113.8756 4986.0184 C 1112.7171 4984.86 1112.7171 4982.9883 1113.8756 4981.83 L 1125.7127 4969.993 C 1126.8698 4968.834 1128.7428 4968.834 1129.8999 4969.993 C 1131.0584 4971.151 1131.0584 4973.023 1129.8999 4974.1814 L 1118.0643 4986.0184 C 1117.4858 4986.5955 1116.7279 4986.886 1115.97 4986.886" fill="#116fff"/>
        </g>
      </g>
    </g>
  </g>
</svg>
