<?xml version="1.0" encoding="UTF-8" standalone="no"?>
<!DOCTYPE svg PUBLIC "-//W3C//DTD SVG 1.1//EN" "http://www.w3.org/Graphics/SVG/1.1/DTD/svg11.dtd">
<svg xmlns:dc="http://purl.org/dc/elements/1.1/" xmlns:xl="http://www.w3.org/1999/xlink" xmlns="http://www.w3.org/2000/svg" version="1.1" viewBox="1186 5565 272.38144 274.09766" width="272.38144" height="274.09766">
  <defs/>
  <metadata> Produced by OmniGraffle 7.9.4 
    <dc:date>2019-06-12 23:17:40 +0000</dc:date>
  </metadata>
  <g id="Canvas_3" stroke="none" stroke-opacity="1" fill-opacity="1" fill="none" stroke-dasharray="none">
    <title>Canvas 3</title>
    <g id="Canvas_3: Layer 1">
      <title>Layer 1</title>
      <g id="Graphic_1411">
        <path d="M 1451.745 5702.047 C 1451.745 5773.594 1393.7411 5831.598 1322.1942 5831.598 C 1250.6434 5831.598 1192.6434 5773.594 1192.6434 5702.047 C 1192.6434 5630.496 1250.6434 5572.496 1322.1942 5572.496 C 1393.7411 5572.496 1451.745 5630.496 1451.745 5702.047 L 1451.745 5702.047" fill="#f8fbff"/>
      </g>
      <g id="Graphic_1410">
        <path d="M 1322.1942 5572.496 C 1313.4481 5572.496 1304.9051 5573.367 1296.6434 5575.0195 C 1355.956 5586.887 1400.6434 5639.242 1400.6434 5702.047 C 1400.6434 5764.8477 1355.956 5817.207 1296.6434 5829.07 C 1304.9051 5830.723 1313.4481 5831.598 1322.1942 5831.598 C 1393.7411 5831.598 1451.745 5773.594 1451.745 5702.047 C 1451.745 5630.496 1393.7411 5572.496 1322.1942 5572.496 L 1322.1942 5572.496" fill="#e4eaf7"/>
      </g>
      <g id="Graphic_1409">
        <path d="M 1451.7372 5709.699 C 1447.6239 5709.2305 1443.9012 5712.172 1443.4208 5716.285 C 1436.284 5777.75 1384.1708 5824.098 1322.1942 5824.098 C 1260.1825 5824.098 1208.0653 5777.719 1200.9598 5716.219 C 1200.4833 5712.1055 1196.7645 5709.1445 1192.6473 5709.629 C 1188.534 5710.1055 1185.581 5713.824 1186.0575 5717.9414 C 1194.038 5787.012 1252.5653 5839.098 1322.1942 5839.098 C 1391.784 5839.098 1450.3075 5787.043 1458.3231 5718.012 C 1458.7997 5713.8984 1455.8505 5710.176 1451.7372 5709.699 L 1451.7372 5709.699" fill="black"/>
      </g>
      <g id="Graphic_1408">
        <path d="M 1322.1942 5565 C 1252.5419 5565 1194.0106 5617.1055 1186.0497 5686.203 C 1185.577 5690.3164 1188.5301 5694.035 1192.6434 5694.512 C 1192.9364 5694.547 1193.2255 5694.5625 1193.5106 5694.5625 C 1197.2684 5694.5625 1200.5106 5691.742 1200.952 5687.918 C 1208.0419 5626.3945 1260.163 5580 1322.1942 5580 C 1384.2098 5580 1436.331 5626.383 1443.4286 5687.8906 C 1443.9051 5692.004 1447.62 5694.957 1451.741 5694.4805 C 1455.8583 5694.008 1458.8075 5690.285 1458.331 5686.172 C 1450.3583 5617.094 1391.831 5565 1322.1942 5565 L 1322.1942 5565" fill="black"/>
      </g>
      <g id="Group_1412">
        <g id="Graphic_1351">
          <path d="M 1370.2908 5649.248 L 1245.1193 5649.248 C 1239.1363 5649.248 1234.2871 5654.097 1234.2871 5660.08 L 1234.2871 5735.507 C 1234.2871 5741.49 1239.1363 5746.339 1245.1193 5746.339 L 1370.2908 5746.339 C 1376.2738 5746.339 1381.123 5741.49 1381.123 5735.507 L 1381.123 5660.08 C 1381.123 5654.097 1376.2738 5649.248 1370.2908 5649.248" fill="#f7d360"/>
        </g>
        <g id="Graphic_1350">
          <path d="M 1247.1733 5667.228 L 1299.3148 5667.228 L 1299.3148 5726.5614 L 1247.1733 5726.5614 L 1247.1733 5667.228" fill="white"/>
        </g>
        <g id="Graphic_1349">
          <path d="M 1370.2908 5647 L 1245.1181 5647 C 1237.9067 5647 1232.0392 5652.8675 1232.0392 5660.08 L 1232.0392 5735.507 C 1232.0392 5742.7196 1237.9067 5748.587 1245.1181 5748.587 L 1370.2908 5748.587 C 1377.5034 5748.587 1383.371 5742.7196 1383.371 5735.507 L 1383.371 5660.08 C 1383.371 5652.8675 1377.5034 5647 1370.2908 5647 L 1370.2908 5647 M 1378.8762 5735.507 C 1378.8762 5740.241 1375.0246 5744.0924 1370.2908 5744.0924 L 1245.1181 5744.0924 C 1240.3856 5744.0924 1236.5339 5740.241 1236.5339 5735.507 L 1236.5339 5660.08 C 1236.5339 5655.3464 1240.3856 5651.495 1245.1181 5651.495 L 1370.2908 5651.495 C 1375.0246 5651.495 1378.8762 5655.3464 1378.8762 5660.08 L 1378.8762 5735.507" fill="black"/>
        </g>
        <g id="Graphic_1348">
          <path d="M 1299.3148 5664.98 L 1247.1733 5664.98 C 1245.9321 5664.98 1244.9253 5665.986 1244.9253 5667.228 L 1244.9253 5672.621 C 1244.9253 5673.862 1245.9321 5674.868 1247.1733 5674.868 C 1248.4144 5674.868 1249.4212 5673.862 1249.4212 5672.621 L 1249.4212 5669.475 L 1297.068 5669.475 L 1297.068 5724.3146 L 1249.4212 5724.3146 L 1249.4212 5681.612 C 1249.4212 5680.3705 1248.4144 5679.364 1247.1733 5679.364 C 1245.9321 5679.364 1244.9253 5680.3705 1244.9253 5681.612 L 1244.9253 5726.5614 C 1244.9253 5727.8026 1245.9321 5728.8094 1247.1733 5728.8094 L 1299.3148 5728.8094 C 1300.556 5728.8094 1301.5628 5727.8026 1301.5628 5726.5614 L 1301.5628 5667.228 C 1301.5628 5665.986 1300.556 5664.98 1299.3148 5664.98" fill="black"/>
        </g>
        <g id="Graphic_1347">
          <path d="M 1368.8384 5670.192 L 1312.5012 5670.192 C 1311.26 5670.192 1310.2532 5671.1986 1310.2532 5672.44 C 1310.2532 5673.681 1311.26 5674.6866 1312.5012 5674.6866 L 1368.8384 5674.6866 C 1370.0795 5674.6866 1371.0852 5673.681 1371.0852 5672.44 C 1371.0852 5671.1986 1370.0795 5670.192 1368.8384 5670.192 L 1368.8384 5670.192" fill="black"/>
        </g>
        <g id="Graphic_1346">
          <path d="M 1368.8384 5686.4955 L 1356.2524 5686.4955 C 1355.0113 5686.4955 1354.0056 5687.501 1354.0056 5688.742 C 1354.0056 5689.9835 1355.0113 5690.99 1356.2524 5690.99 L 1368.8384 5690.99 C 1370.0795 5690.99 1371.0852 5689.9835 1371.0852 5688.742 C 1371.0852 5687.501 1370.0795 5686.4955 1368.8384 5686.4955 L 1368.8384 5686.4955" fill="black"/>
        </g>
        <g id="Graphic_1345">
          <path d="M 1312.5012 5690.99 L 1347.2618 5690.99 C 1348.503 5690.99 1349.5097 5689.9835 1349.5097 5688.742 C 1349.5097 5687.501 1348.503 5686.4955 1347.2618 5686.4955 L 1312.5012 5686.4955 C 1311.26 5686.4955 1310.2532 5687.501 1310.2532 5688.742 C 1310.2532 5689.9835 1311.26 5690.99 1312.5012 5690.99 L 1312.5012 5690.99" fill="black"/>
        </g>
        <g id="Graphic_1344">
          <path d="M 1343.0672 5702.799 L 1312.5012 5702.799 C 1311.26 5702.799 1310.2532 5703.805 1310.2532 5705.046 C 1310.2532 5706.287 1311.26 5707.294 1312.5012 5707.294 L 1343.0672 5707.294 C 1344.3084 5707.294 1345.314 5706.287 1345.314 5705.046 C 1345.314 5703.805 1344.3084 5702.799 1343.0672 5702.799" fill="black"/>
        </g>
        <g id="Graphic_1343">
          <path d="M 1352.258 5725.6337 C 1351.5673 5725.6574 1350.8834 5725.493 1350.2789 5725.157 C 1347.2957 5723.685 1345.718 5725.244 1341.1838 5730.379 C 1340.2948 5731.567 1339.156 5732.5454 1337.8468 5733.245 C 1337.6833 5732.808 1337.5901 5732.347 1337.5693 5731.8814 C 1337.8101 5730.493 1338.3443 5725.916 1335.4008 5724.1907 C 1332.1838 5722.3086 1327.7329 5725.5425 1324.6685 5728.146 C 1323.9966 5728.726 1323.28 5729.25 1322.5248 5729.716 C 1325.1085 5722.612 1324.5545 5719.498 1323.3206 5718.173 C 1322.4881 5717.273 1320.8965 5716.457 1318.0243 5717.677 C 1314.284 5719.1937 1311.8024 5722.788 1311.7102 5726.823 C 1311.4942 5729.935 1313.1354 5732.8804 1315.8955 5734.333 L 1316.0987 5734.4225 C 1315.4228 5735.898 1314.6904 5737.4056 1313.9144 5738.887 C 1313.398 5739.883 1313.7855 5741.109 1314.7815 5741.6256 C 1315.7766 5742.143 1317.0025 5741.7545 1317.5189 5740.7594 C 1318.6398 5738.6 1319.5962 5736.6366 1320.4059 5734.8526 C 1322.9886 5734.28 1325.3722 5733.026 1327.3067 5731.221 C 1331.8756 5727.336 1333.3166 5727.6634 1333.3513 5727.6673 C 1333.7953 5728.835 1333.8667 5730.111 1333.5545 5731.3204 C 1333.5297 5731.449 1333.5178 5731.58 1333.5178 5731.711 C 1333.5178 5732.4334 1333.6556 5736.0865 1336.375 5737.116 C 1339.2452 5738.1975 1342.2353 5735.3174 1344.2323 5733.057 C 1345.5158 5731.5246 1346.9092 5730.0885 1348.4018 5728.7595 L 1348.479 5728.798 C 1349.6426 5729.4106 1350.9429 5729.719 1352.258 5729.693 C 1353.379 5729.693 1354.2877 5728.784 1354.2877 5727.6634 C 1354.2877 5726.5425 1353.379 5725.6337 1352.258 5725.6337 L 1352.258 5725.6337 M 1317.7181 5730.708 L 1317.6448 5730.675 C 1316.3504 5729.8824 1315.624 5728.4176 1315.7756 5726.906 C 1315.8321 5724.466 1317.3494 5722.3 1319.622 5721.412 C 1319.8648 5721.3056 1320.1155 5721.2194 1320.3732 5721.156 C 1320.0868 5724.477 1319.1869 5727.716 1317.7181 5730.708" fill="black"/>
        </g>
        <g id="Graphic_1342">
          <path d="M 1409.284 5756.347 L 1395.1154 5734.5093 L 1375.5194 5734.5093 L 1394.5697 5763.8716 C 1394.925 5764.4195 1395.7301 5764.411 1396.0733 5763.855 L 1400.1001 5757.33 C 1400.3688 5756.8946 1400.8702 5756.659 1401.377 5756.73 L 1408.4143 5757.713 C 1409.1696 5757.8186 1409.6989 5756.987 1409.284 5756.347 L 1409.284 5756.347" fill="#fcdf6c"/>
        </g>
        <g id="Graphic_1341">
          <path d="M 1409.284 5756.347 L 1395.1154 5734.5093 L 1386.6469 5734.5093 L 1400.7405 5756.805 C 1400.9397 5756.729 1401.1576 5756.699 1401.377 5756.73 L 1408.4143 5757.713 C 1409.1696 5757.8186 1409.6989 5756.987 1409.284 5756.347 L 1409.284 5756.347" fill="#f4b425"/>
        </g>
        <g id="Graphic_1340">
          <path d="M 1361.3448 5756.347 L 1375.5134 5734.5093 L 1395.1094 5734.5093 L 1376.0596 5763.8716 C 1375.7038 5764.4195 1374.8987 5764.411 1374.556 5763.855 L 1370.5293 5757.33 C 1370.26 5756.8946 1369.7591 5756.659 1369.2518 5756.73 L 1362.2145 5757.713 C 1361.4592 5757.8186 1360.93 5756.987 1361.3448 5756.347 L 1361.3448 5756.347" fill="#fcdf6c"/>
        </g>
        <g id="Graphic_1339">
          <path d="M 1386.3782 5734.5093 L 1371.053 5758.179 L 1374.556 5763.855 C 1374.8987 5764.41 1375.7038 5764.4195 1376.0596 5763.8716 L 1395.1094 5734.509 L 1386.3782 5734.509 L 1386.3782 5734.5093" fill="#f4b425"/>
        </g>
        <g id="Graphic_1338">
          <path d="M 1386.0465 5696.3184 L 1389.3979 5694.796 C 1390.0892 5694.482 1390.9036 5694.644 1391.4225 5695.1985 L 1393.9353 5697.8876 C 1394.2846 5698.261 1394.7772 5698.465 1395.2878 5698.4476 L 1398.9665 5698.324 C 1399.7257 5698.298 1400.4165 5698.7595 1400.683 5699.4705 L 1401.9758 5702.9166 C 1402.1554 5703.395 1402.533 5703.772 1403.0114 5703.9517 L 1406.4575 5705.2445 C 1407.1685 5705.5116 1407.6299 5706.202 1407.6042 5706.961 L 1407.48 5710.6397 C 1407.463 5711.15 1407.6671 5711.6435 1408.0404 5711.992 L 1410.729 5714.5055 C 1411.284 5715.024 1411.446 5715.839 1411.1318 5716.53 L 1409.6097 5719.881 C 1409.3984 5720.346 1409.3984 5720.88 1409.6097 5721.345 L 1411.1318 5724.696 C 1411.446 5725.387 1411.284 5726.202 1410.729 5726.7206 L 1408.0404 5729.234 C 1407.6671 5729.583 1407.463 5730.076 1407.48 5730.5865 L 1407.6042 5734.265 C 1407.6299 5735.0244 1407.1685 5735.7146 1406.4575 5735.982 L 1403.0114 5737.2745 C 1402.533 5737.454 1402.1554 5737.832 1401.9758 5738.3096 L 1400.683 5741.7556 C 1400.4165 5742.4666 1399.7257 5742.9286 1398.9665 5742.903 L 1395.2878 5742.7786 C 1394.7772 5742.761 1394.2846 5742.966 1393.9353 5743.3386 L 1391.4225 5746.028 C 1390.9036 5746.583 1390.0892 5746.745 1389.3979 5746.4305 L 1386.0465 5744.908 C 1385.5812 5744.6965 1385.0476 5744.6965 1384.5829 5744.908 L 1381.2315 5746.4305 C 1380.5402 5746.745 1379.7252 5746.583 1379.2069 5746.028 L 1376.6934 5743.3386 C 1376.3448 5742.966 1375.8516 5742.761 1375.341 5742.7786 L 1371.6628 5742.903 C 1370.9036 5742.9286 1370.2129 5742.4666 1369.9463 5741.7556 L 1368.653 5738.3096 C 1368.4734 5737.832 1368.0963 5737.454 1367.618 5737.2745 L 1364.1718 5735.982 C 1363.4608 5735.7146 1362.9994 5735.0244 1363.0252 5734.265 L 1363.1494 5730.5865 C 1363.1664 5730.076 1362.9622 5729.583 1362.589 5729.234 L 1359.9004 5726.7206 C 1359.3454 5726.202 1359.1834 5725.387 1359.4975 5724.696 L 1361.0197 5721.345 C 1361.231 5720.88 1361.231 5720.346 1361.0197 5719.881 L 1359.4975 5716.53 C 1359.1834 5715.839 1359.3454 5715.024 1359.9004 5714.5055 L 1362.589 5711.992 C 1362.9622 5711.6435 1363.1664 5711.15 1363.1494 5710.6397 L 1363.0252 5706.961 C 1362.9994 5706.202 1363.4608 5705.5116 1364.1718 5705.2445 L 1367.618 5703.9517 C 1368.0963 5703.772 1368.4734 5703.395 1368.653 5702.9166 L 1369.9463 5699.4705 C 1370.2129 5698.7595 1370.9036 5698.298 1371.6628 5698.324 L 1375.341 5698.4476 C 1375.8516 5698.465 1376.3448 5698.261 1376.6934 5697.8876 L 1379.2069 5695.1985 C 1379.7257 5694.644 1380.5402 5694.482 1381.2315 5694.796 L 1384.5829 5696.3184 C 1385.0476 5696.53 1385.5812 5696.53 1386.0465 5696.3184 L 1386.0465 5696.3184" fill="#d82652"/>
        </g>
        <g id="Graphic_1337">
          <path d="M 1403.4674 5720.6134 C 1403.4674 5730.6385 1395.3398 5738.766 1385.3147 5738.766 C 1375.289 5738.766 1367.162 5730.6385 1367.162 5720.6134 C 1367.162 5710.5877 1375.289 5702.461 1385.3147 5702.461 C 1395.3398 5702.461 1403.4674 5710.5877 1403.4674 5720.6134 L 1403.4674 5720.6134" fill="#f8fbff"/>
        </g>
        <g id="Graphic_1336">
          <path d="M 1385.3147 5702.461 C 1384.0892 5702.461 1382.8921 5702.583 1381.7345 5702.814 C 1390.0454 5704.477 1396.307 5711.813 1396.307 5720.6134 C 1396.307 5729.413 1390.0454 5736.7496 1381.7345 5738.412 C 1382.8921 5738.6434 1384.0892 5738.766 1385.3147 5738.766 C 1395.3398 5738.766 1403.4674 5730.6385 1403.4674 5720.6134 C 1403.4674 5710.5877 1395.3398 5702.461 1385.3147 5702.461 L 1385.3147 5702.461" fill="#e4eaf7"/>
        </g>
        <g id="Graphic_1335">
          <path d="M 1412.0886 5724.262 L 1410.5659 5720.911 C 1410.48 5720.722 1410.48 5720.5055 1410.5659 5720.317 L 1412.0886 5716.965 C 1412.5894 5715.8624 1412.3316 5714.566 1411.4465 5713.738 L 1408.7574 5711.225 C 1408.6058 5711.0836 1408.5232 5710.883 1408.5303 5710.676 L 1408.654 5706.997 C 1408.695 5705.7864 1407.9605 5704.687 1406.8264 5704.2614 L 1403.3803 5702.968 C 1403.186 5702.895 1403.0328 5702.742 1402.96 5702.548 L 1401.6671 5699.1016 C 1401.2413 5697.9675 1400.1379 5697.232 1398.931 5697.274 L 1395.2528 5697.398 C 1395.0426 5697.404 1394.845 5697.322 1394.7033 5697.1706 L 1392.1899 5694.4815 C 1391.3628 5693.5964 1390.0656 5693.3386 1388.9627 5693.84 L 1385.6119 5695.362 C 1385.423 5695.448 1385.2063 5695.4476 1385.0175 5695.362 L 1381.666 5693.84 C 1380.5632 5693.3386 1379.2665 5693.5964 1378.439 5694.4815 L 1375.926 5697.1706 C 1375.7843 5697.322 1375.585 5697.4054 1375.3765 5697.398 L 1371.6978 5697.274 C 1370.4866 5697.234 1369.388 5697.968 1368.9622 5699.102 L 1367.6688 5702.548 C 1367.596 5702.7426 1367.4428 5702.896 1367.2485 5702.9686 L 1363.8024 5704.2614 C 1362.6683 5704.687 1361.9338 5705.7864 1361.9748 5706.997 L 1362.099 5710.676 C 1362.1056 5710.883 1362.023 5711.0836 1361.8714 5711.225 L 1359.1828 5713.738 C 1358.2977 5714.566 1358.0394 5715.8624 1358.5408 5716.965 L 1360.063 5720.316 C 1360.1489 5720.505 1360.1489 5720.722 1360.063 5720.911 L 1358.5408 5724.262 C 1358.0394 5725.365 1358.2972 5726.6615 1359.1823 5727.489 L 1361.8714 5730.0025 C 1362.023 5730.144 1362.1056 5730.344 1362.099 5730.5515 L 1361.9748 5734.23 C 1361.9338 5735.441 1362.6683 5736.5405 1363.8024 5736.966 L 1367.2485 5738.2587 C 1367.4428 5738.332 1367.596 5738.485 1367.6688 5738.679 L 1368.9622 5742.125 C 1369.0044 5742.238 1369.053 5742.347 1369.1083 5742.451 L 1360.4636 5755.775 C 1360.0443 5756.421 1360.041 5757.225 1360.4548 5757.8744 C 1360.868 5758.5235 1361.5977 5758.861 1362.3601 5758.754 L 1369.3973 5757.7704 C 1369.4915 5757.757 1369.5851 5757.801 1369.6349 5757.882 L 1373.6617 5764.4064 C 1374.0131 5764.9756 1374.6223 5765.3205 1375.2912 5765.3276 C 1375.2988 5765.3276 1375.306 5765.328 1375.3136 5765.328 C 1375.9737 5765.328 1376.5812 5764.9986 1376.9408 5764.4436 L 1388.2244 5747.052 L 1388.9627 5747.387 C 1390.0656 5747.888 1391.3623 5747.63 1392.1899 5746.745 L 1394.7033 5744.057 C 1394.845 5743.905 1395.0465 5743.822 1395.2523 5743.829 L 1398.931 5743.953 C 1400.1422 5743.994 1401.2408 5743.26 1401.6666 5742.125 L 1402.9594 5738.679 C 1403.0322 5738.485 1403.186 5738.3315 1403.3798 5738.2587 L 1406.8259 5736.966 C 1407.9605 5736.54 1408.695 5735.4404 1408.654 5734.23 L 1408.5297 5730.5515 C 1408.5226 5730.344 1408.6058 5730.144 1408.7574 5730.002 L 1411.446 5727.4886 C 1412.3316 5726.6615 1412.5894 5725.365 1412.0886 5724.262 L 1412.0886 5724.262 M 1375.3163 5763.086 L 1371.4236 5756.7786 C 1370.936 5755.988 1370.0273 5755.561 1369.1067 5755.689 L 1362.4187 5756.624 L 1370.7285 5743.816 C 1371.035 5743.916 1371.3623 5743.964 1371.6978 5743.953 L 1375.3765 5743.829 C 1375.585 5743.822 1375.7843 5743.905 1375.926 5744.057 L 1378.4395 5746.745 C 1378.9852 5747.329 1379.7356 5747.64 1380.4997 5747.64 C 1380.8932 5747.64 1381.2911 5747.5575 1381.666 5747.387 L 1385.0175 5745.865 C 1385.2063 5745.779 1385.423 5745.779 1385.6119 5745.865 L 1386.2895 5746.173 L 1375.3163 5763.086 M 1410.0114 5725.953 L 1407.3223 5728.467 C 1406.7273 5729.023 1406.4022 5729.809 1406.4296 5730.6227 L 1406.5538 5734.301 C 1406.5642 5734.6095 1406.377 5734.89 1406.088 5734.998 L 1402.642 5736.291 C 1401.8795 5736.577 1401.278 5737.178 1400.9923 5737.9406 L 1399.6989 5741.387 C 1399.5905 5741.676 1399.308 5741.863 1399.0021 5741.8525 L 1395.3234 5741.728 C 1394.51 5741.7015 1393.7235 5742.0266 1393.168 5742.6215 L 1390.6546 5745.31 C 1390.4438 5745.5356 1390.1132 5745.602 1389.8319 5745.474 L 1386.481 5743.9516 C 1385.74 5743.6144 1384.8894 5743.6144 1384.1477 5743.9516 L 1380.7969 5745.474 C 1380.5156 5745.601 1380.1855 5745.5356 1379.9748 5745.31 L 1377.4614 5742.6215 C 1376.9272 5742.0496 1376.1806 5741.727 1375.4012 5741.727 C 1375.3694 5741.727 1375.3377 5741.728 1375.3054 5741.729 L 1371.6272 5741.853 C 1371.3185 5741.8635 1371.0383 5741.676 1370.9299 5741.387 L 1369.6371 5737.941 C 1369.3508 5737.179 1368.7493 5736.577 1367.9874 5736.2915 L 1364.5413 5734.998 C 1364.2523 5734.89 1364.0651 5734.6095 1364.0755 5734.3014 L 1364.1992 5730.6227 C 1364.2271 5729.809 1363.9015 5729.023 1363.3065 5728.467 L 1360.618 5725.953 C 1360.3924 5725.7425 1360.3262 5725.4125 1360.4543 5725.131 L 1361.9765 5721.78 C 1362.3136 5721.039 1362.3136 5720.1886 1361.9765 5719.447 L 1360.4543 5716.096 C 1360.3268 5715.8153 1360.3924 5715.485 1360.618 5715.274 L 1363.3065 5712.7606 C 1363.9015 5712.2045 1364.2271 5711.4185 1364.1998 5710.6046 L 1364.0755 5706.926 C 1364.0651 5706.618 1364.2523 5706.3375 1364.5413 5706.229 L 1367.9874 5704.936 C 1368.7498 5704.65 1369.3508 5704.049 1369.6371 5703.2866 L 1370.9299 5699.8405 C 1371.0383 5699.5515 1371.3174 5699.365 1371.6272 5699.375 L 1375.306 5699.4985 C 1376.121 5699.5275 1376.9053 5699.201 1377.4614 5698.606 L 1379.9748 5695.917 C 1380.1855 5695.691 1380.5161 5695.626 1380.7969 5695.7535 L 1384.1477 5697.276 C 1384.8894 5697.612 1385.7394 5697.612 1386.481 5697.276 L 1389.8319 5695.7535 C 1390.1132 5695.626 1390.4438 5695.692 1390.6546 5695.917 L 1393.168 5698.606 C 1393.7235 5699.201 1394.5117 5699.528 1395.3234 5699.499 L 1399.0021 5699.375 C 1399.3064 5699.365 1399.5905 5699.5515 1399.6989 5699.8405 L 1400.9923 5703.2866 C 1401.278 5704.049 1401.8795 5704.65 1402.642 5704.936 L 1406.088 5706.229 C 1406.377 5706.338 1406.5642 5706.618 1406.5538 5706.9265 L 1406.4296 5710.605 C 1406.4022 5711.419 1406.7273 5712.2045 1407.3223 5712.7606 L 1410.0114 5715.274 C 1410.2369 5715.485 1410.3026 5715.8153 1410.175 5716.096 L 1408.6523 5719.447 C 1408.3157 5720.1886 1408.3157 5721.039 1408.6523 5721.78 L 1410.1745 5725.131 C 1410.3026 5725.4125 1410.2369 5725.7425 1410.0114 5725.953 L 1410.0114 5725.953" fill="black"/>
        </g>
        <g id="Graphic_1334">
          <path d="M 1403.4663 5721.6856 C 1402.8899 5721.62 1402.3683 5722.032 1402.301 5722.6084 C 1401.301 5731.221 1393.9988 5737.715 1385.3147 5737.715 C 1376.6256 5737.715 1369.3229 5731.2165 1368.3273 5722.599 C 1368.2605 5722.023 1367.7394 5721.608 1367.1625 5721.676 C 1366.5862 5721.7425 1366.1724 5722.2636 1366.2392 5722.8405 C 1367.3574 5732.5187 1375.5583 5739.817 1385.3147 5739.817 C 1395.0656 5739.817 1403.266 5732.523 1404.389 5722.8504 C 1404.4559 5722.274 1404.0426 5721.7524 1403.4663 5721.6856 L 1403.4663 5721.6856" fill="black"/>
        </g>
        <g id="Graphic_1333">
          <path d="M 1385.3147 5701.41 C 1375.555 5701.41 1367.3536 5708.7114 1366.238 5718.393 C 1366.1718 5718.97 1366.5856 5719.491 1367.162 5719.5575 C 1367.203 5719.5625 1367.2435 5719.5647 1367.2835 5719.5647 C 1367.81 5719.5647 1368.2643 5719.1695 1368.3262 5718.6336 C 1369.3196 5710.013 1376.6228 5703.512 1385.3147 5703.512 C 1394.0043 5703.512 1401.3075 5710.011 1402.302 5718.63 C 1402.3688 5719.206 1402.8894 5719.62 1403.4668 5719.553 C 1404.0437 5719.487 1404.457 5718.965 1404.3902 5718.389 C 1403.273 5708.71 1395.0722 5701.41 1385.3147 5701.41 L 1385.3147 5701.41" fill="black"/>
        </g>
        <g id="Graphic_1332">
          <path d="M 1403.3951 5745.34 C 1403.0793 5744.853 1402.428 5744.7146 1401.9414 5745.0304 C 1401.4542 5745.346 1401.3157 5745.997 1401.6316 5746.484 L 1408.2101 5756.624 L 1401.5226 5755.6894 C 1400.6025 5755.561 1399.6929 5755.988 1399.2057 5756.7786 L 1395.3125 5763.086 L 1388.498 5752.583 C 1388.1822 5752.096 1387.5314 5751.9576 1387.0448 5752.2734 C 1386.5577 5752.589 1386.4192 5753.24 1386.735 5753.727 L 1393.688 5764.4436 C 1394.0481 5764.9986 1394.6551 5765.328 1395.3152 5765.328 L 1395.3376 5765.328 C 1396.0065 5765.3205 1396.6157 5764.976 1396.9676 5764.407 L 1400.9939 5757.882 C 1401.0443 5757.801 1401.1379 5757.757 1401.2314 5757.7704 L 1408.2687 5758.754 C 1409.0306 5758.861 1409.7607 5758.5235 1410.1745 5757.8744 C 1410.5878 5757.225 1410.5845 5756.421 1410.1658 5755.776 L 1403.3951 5745.34" fill="black"/>
        </g>
        <g id="Graphic_1331">
          <path d="M 1388.2217 5710.652 C 1388.2217 5711.814 1387.5409 5712.8144 1386.5572 5713.275 C 1386.1796 5713.457 1385.7603 5713.5574 1385.3163 5713.5574 C 1384.868 5713.5574 1384.4446 5713.458 1384.0668 5713.275 C 1383.0878 5712.8104 1382.4109 5711.81 1382.4109 5710.652 C 1382.4109 5709.046 1383.7103 5707.7466 1385.3163 5707.7466 C 1386.9183 5707.7466 1388.2217 5709.046 1388.2217 5710.652 M 1386.5614 5710.652 C 1386.5614 5709.963 1386.001 5709.407 1385.3163 5709.407 C 1384.6272 5709.407 1384.0711 5709.963 1384.0711 5710.652 C 1384.0711 5711.341 1384.6272 5711.897 1385.3163 5711.897 C 1386.001 5711.897 1386.5614 5711.341 1386.5614 5710.652" fill="white"/>
        </g>
        <g id="Graphic_1330">
          <path d="M 1380.846 5716.467 C 1381.0449 5716.687 1381.1657 5716.9776 1381.1657 5717.297 C 1381.1657 5717.617 1381.0453 5717.903 1380.8501 5718.123 C 1380.626 5718.3804 1380.2898 5718.542 1379.9205 5718.542 C 1379.2315 5718.542 1378.6753 5717.986 1378.6753 5717.297 L 1378.6753 5717.293 C 1378.6794 5716.604 1379.2315 5716.052 1379.9205 5716.052 C 1380.2904 5716.052 1380.6215 5716.2097 1380.846 5716.467" fill="white"/>
        </g>
        <g id="Graphic_1329">
          <path d="M 1391.9529 5717.293 L 1391.9529 5717.297 C 1391.9529 5717.986 1391.3968 5718.542 1390.7077 5718.542 C 1390.3379 5718.542 1390.0067 5718.3804 1389.7822 5718.123 L 1389.7781 5718.123 C 1389.583 5717.903 1389.4626 5717.6166 1389.4626 5717.297 C 1389.4626 5716.9776 1389.583 5716.687 1389.7822 5716.467 C 1390.011 5716.2097 1390.343 5716.052 1390.7077 5716.052 C 1391.3968 5716.052 1391.9489 5716.604 1391.9529 5717.293" fill="white"/>
        </g>
        <g id="Graphic_1328">
          <path d="M 1384.0668 5718.123 L 1380.8501 5718.123 C 1381.0453 5717.903 1381.1657 5717.6166 1381.1657 5717.297 C 1381.1657 5716.9776 1381.0453 5716.687 1380.846 5716.467 L 1389.7822 5716.467 C 1389.5834 5716.687 1389.4626 5716.9776 1389.4626 5717.297 C 1389.4626 5717.617 1389.583 5717.903 1389.7781 5718.123 L 1384.0668 5718.123" fill="white"/>
        </g>
        <g id="Graphic_1327">
          <path d="M 1386.5572 5716.463 L 1386.5572 5713.275 C 1386.1796 5713.457 1385.7603 5713.5574 1385.3163 5713.5574 C 1384.868 5713.5574 1384.4446 5713.458 1384.0668 5713.275 L 1384.0668 5716.467 L 1386.5572 5716.467 L 1386.5572 5716.463" fill="#d7e9ff"/>
        </g>
        <g id="Graphic_1326">
          <path d="M 1394.0282 5723.934 L 1393.1981 5724.266 L 1393.1981 5724.764 C 1393.1981 5727.2875 1391.156 5729.3296 1388.6325 5729.3296 L 1388.2217 5729.3296 C 1387.7028 5729.3296 1387.2426 5729.093 1386.935 5728.7236 C 1386.702 5728.437 1386.5572 5728.072 1386.5572 5727.669 L 1386.5572 5718.123 L 1384.0668 5718.123 L 1384.0668 5727.665 C 1384.0668 5728.242 1383.7764 5728.748 1383.3364 5729.047 C 1383.0703 5729.226 1382.7511 5729.3296 1382.4066 5729.3296 L 1381.9958 5729.3296 C 1379.4722 5729.3296 1377.4302 5727.2875 1377.4302 5724.764 L 1377.4302 5724.266 L 1376.6 5723.934 L 1375.77 5724.266 L 1375.77 5724.764 C 1375.77 5728.894 1379.1115 5732.235 1383.241 5732.235 L 1384.0711 5732.235 C 1384.7559 5732.235 1385.3163 5732.791 1385.3163 5733.48 C 1385.3163 5732.791 1385.8724 5732.235 1386.5614 5732.235 L 1387.3873 5732.235 C 1391.5168 5732.235 1394.8583 5728.894 1394.8583 5724.764 L 1394.8583 5724.266 L 1394.0282 5723.934" fill="#d7e9ff"/>
        </g>
        <g id="Graphic_1325">
          <path d="M 1394.0282 5721.0284 L 1396.1035 5724.764 L 1394.8583 5724.266 L 1394.0282 5723.934 L 1393.1981 5724.266 L 1391.9529 5724.764 L 1394.0282 5721.0284" fill="white"/>
        </g>
        <g id="Graphic_1324">
          <path d="M 1376.6 5721.0284 L 1378.6753 5724.764 L 1377.4302 5724.266 L 1376.6 5723.934 L 1375.77 5724.266 L 1374.5248 5724.764 L 1376.6 5721.0284" fill="white"/>
        </g>
        <g id="Group_1276">
          <g id="Graphic_1323">
            <path d="M 1385.3142 5733.895 C 1385.0846 5733.895 1384.8992 5733.71 1384.8992 5733.48 C 1384.8992 5732.5645 1385.6438 5731.82 1386.5594 5731.82 C 1386.7888 5731.82 1386.9745 5732.005 1386.9745 5732.235 C 1386.9745 5732.4646 1386.7888 5732.65 1386.5594 5732.65 C 1386.1016 5732.65 1385.7293 5733.022 1385.7293 5733.48 C 1385.7293 5733.71 1385.5436 5733.895 1385.3142 5733.895" fill="#116fff"/>
          </g>
          <g id="Graphic_1322">
            <path d="M 1385.3142 5733.895 C 1385.0846 5733.895 1384.8992 5733.71 1384.8992 5733.48 C 1384.8992 5733.022 1384.5267 5732.65 1384.069 5732.65 C 1383.8394 5732.65 1383.654 5732.4646 1383.654 5732.235 C 1383.654 5732.005 1383.8394 5731.82 1384.069 5731.82 C 1384.9845 5731.82 1385.7293 5732.5645 1385.7293 5733.48 C 1385.7293 5733.71 1385.5436 5733.895 1385.3142 5733.895" fill="#116fff"/>
          </g>
          <g id="Graphic_1321">
            <path d="M 1387.386 5732.65 C 1387.1567 5732.65 1386.971 5732.4646 1386.971 5732.235 C 1386.971 5732.005 1387.1567 5731.82 1387.386 5731.82 C 1391.2768 5731.82 1394.442 5728.655 1394.442 5724.764 C 1394.442 5724.534 1394.6277 5724.349 1394.8571 5724.349 C 1395.0867 5724.349 1395.2722 5724.534 1395.2722 5724.764 C 1395.2722 5729.1125 1391.7346 5732.65 1387.386 5732.65 L 1387.386 5732.65" fill="#116fff"/>
          </g>
          <g id="Graphic_1320">
            <path d="M 1388.6329 5729.7446 C 1388.4034 5729.7446 1388.2178 5729.559 1388.2178 5729.3296 C 1388.2178 5729.1 1388.4034 5728.9145 1388.6329 5728.9145 C 1390.9216 5728.9145 1392.7834 5727.0526 1392.7834 5724.764 C 1392.7834 5724.534 1392.969 5724.349 1393.1985 5724.349 C 1393.4281 5724.349 1393.6136 5724.534 1393.6136 5724.764 C 1393.6136 5727.5104 1391.3794 5729.7446 1388.6329 5729.7446" fill="#116fff"/>
          </g>
          <g id="Graphic_1319">
            <path d="M 1387.386 5732.65 L 1386.5594 5732.65 C 1386.3298 5732.65 1386.1443 5732.4646 1386.1443 5732.235 C 1386.1443 5732.005 1386.3298 5731.82 1386.5594 5731.82 L 1387.386 5731.82 C 1387.6157 5731.82 1387.8011 5732.005 1387.8011 5732.235 C 1387.8011 5732.4646 1387.6157 5732.65 1387.386 5732.65" fill="#116fff"/>
          </g>
          <g id="Graphic_1318">
            <path d="M 1391.9537 5725.179 C 1391.8856 5725.179 1391.8163 5725.1624 1391.7529 5725.127 C 1391.5525 5725.0154 1391.4803 5724.763 1391.5914 5724.563 L 1393.6666 5720.826 C 1393.7779 5720.626 1394.0308 5720.553 1394.2309 5720.6644 C 1394.4313 5720.776 1394.5035 5721.0284 1394.3922 5721.2284 L 1392.3169 5724.965 C 1392.2411 5725.102 1392.0998 5725.179 1391.9537 5725.179" fill="#116fff"/>
          </g>
          <g id="Graphic_1317">
            <path d="M 1396.1051 5725.179 C 1395.9592 5725.179 1395.818 5725.102 1395.742 5724.965 L 1393.6666 5721.2284 C 1393.5552 5721.0284 1393.6273 5720.775 1393.8282 5720.6644 C 1394.0282 5720.5524 1394.2815 5720.625 1394.3922 5720.826 L 1396.4675 5724.563 C 1396.5791 5724.763 1396.507 5725.016 1396.3062 5725.127 C 1396.2425 5725.1624 1396.1732 5725.179 1396.1051 5725.179 L 1396.1051 5725.179" fill="#116fff"/>
          </g>
          <g id="Graphic_1316">
            <path d="M 1396.1047 5725.179 C 1396.0532 5725.179 1396.001 5725.17 1395.9505 5725.1496 L 1394.0294 5724.38 L 1392.1086 5725.1496 C 1391.8958 5725.234 1391.6542 5725.131 1391.5687 5724.9184 C 1391.4835 5724.7054 1391.5869 5724.464 1391.7999 5724.378 L 1393.8752 5723.547 C 1393.9747 5723.5076 1394.0843 5723.5076 1394.1838 5723.547 L 1396.2591 5724.378 C 1396.4721 5724.464 1396.5755 5724.7054 1396.4904 5724.9184 C 1396.4251 5725.081 1396.2695 5725.179 1396.1047 5725.179 L 1396.1047 5725.179" fill="#116fff"/>
          </g>
          <g id="Graphic_1315">
            <path d="M 1394.8571 5725.179 C 1394.6277 5725.179 1394.442 5724.9935 1394.442 5724.764 L 1394.442 5724.265 C 1394.442 5724.0356 1394.6277 5723.85 1394.8571 5723.85 C 1395.0867 5723.85 1395.2722 5724.0356 1395.2722 5724.265 L 1395.2722 5724.764 C 1395.2722 5724.9935 1395.0867 5725.179 1394.8571 5725.179" fill="#116fff"/>
          </g>
          <g id="Graphic_1314">
            <path d="M 1393.1985 5725.179 C 1392.969 5725.179 1392.7834 5724.9935 1392.7834 5724.764 L 1392.7834 5724.265 C 1392.7834 5724.0356 1392.969 5723.85 1393.1985 5723.85 C 1393.4281 5723.85 1393.6136 5724.0356 1393.6136 5724.265 L 1393.6136 5724.764 C 1393.6136 5724.9935 1393.4281 5725.179 1393.1985 5725.179" fill="#116fff"/>
          </g>
          <g id="Graphic_1313">
            <path d="M 1383.2422 5732.6496 C 1378.8936 5732.6496 1375.3561 5729.112 1375.3561 5724.7635 C 1375.3561 5724.534 1375.5415 5724.3485 1375.7712 5724.3485 C 1376.0006 5724.3485 1376.1862 5724.534 1376.1862 5724.7635 C 1376.1862 5728.654 1379.3514 5731.8195 1383.2422 5731.8195 C 1383.4716 5731.8195 1383.6572 5732.005 1383.6572 5732.2346 C 1383.6572 5732.464 1383.4716 5732.6496 1383.2422 5732.6496" fill="#116fff"/>
          </g>
          <g id="Graphic_1312">
            <path d="M 1381.9954 5729.744 C 1379.2489 5729.744 1377.0147 5727.51 1377.0147 5724.7635 C 1377.0147 5724.534 1377.2001 5724.3485 1377.4298 5724.3485 C 1377.6592 5724.3485 1377.8448 5724.534 1377.8448 5724.7635 C 1377.8448 5727.052 1379.7067 5728.914 1381.9954 5728.914 C 1382.2248 5728.914 1382.4104 5729.0995 1382.4104 5729.329 C 1382.4104 5729.5586 1382.2248 5729.744 1381.9954 5729.744" fill="#116fff"/>
          </g>
          <g id="Graphic_1311">
            <path d="M 1384.069 5732.6496 L 1383.2422 5732.6496 C 1383.0126 5732.6496 1382.8271 5732.464 1382.8271 5732.2346 C 1382.8271 5732.005 1383.0126 5731.8195 1383.2422 5731.8195 L 1384.069 5731.8195 C 1384.2985 5731.8195 1384.4841 5732.005 1384.4841 5732.2346 C 1384.4841 5732.464 1384.2985 5732.6496 1384.069 5732.6496" fill="#116fff"/>
          </g>
          <g id="Graphic_1310">
            <path d="M 1378.6745 5725.1786 C 1378.5284 5725.1786 1378.3872 5725.1014 1378.3114 5724.965 L 1376.236 5721.228 C 1376.1244 5721.028 1376.1965 5720.775 1376.3974 5720.664 C 1376.5974 5720.5515 1376.8507 5720.625 1376.9616 5720.8255 L 1379.0369 5724.562 C 1379.1484 5724.762 1379.0762 5725.0154 1378.8754 5725.126 C 1378.812 5725.162 1378.7426 5725.1786 1378.6745 5725.1786" fill="#116fff"/>
          </g>
          <g id="Graphic_1309">
            <path d="M 1374.5231 5725.1786 C 1374.455 5725.1786 1374.3857 5725.162 1374.3221 5725.126 C 1374.1217 5725.015 1374.0495 5724.762 1374.1608 5724.562 L 1376.236 5720.8255 C 1376.3473 5720.625 1376.6 5720.552 1376.8001 5720.664 C 1377.0005 5720.775 1377.0727 5721.028 1376.9616 5721.228 L 1374.8863 5724.965 C 1374.8103 5725.1014 1374.669 5725.1786 1374.5231 5725.1786 L 1374.5231 5725.1786" fill="#116fff"/>
          </g>
          <g id="Graphic_1308">
            <path d="M 1378.6741 5725.1786 C 1378.6226 5725.1786 1378.5704 5725.1695 1378.5197 5725.149 L 1376.5988 5724.38 L 1374.6778 5725.149 C 1374.465 5725.234 1374.2234 5725.131 1374.1379 5724.918 C 1374.0528 5724.705 1374.1561 5724.4634 1374.3691 5724.378 L 1376.4444 5723.547 C 1376.5439 5723.507 1376.6536 5723.507 1376.753 5723.547 L 1378.8284 5724.378 C 1379.0414 5724.4634 1379.1447 5724.705 1379.0596 5724.918 C 1378.9941 5725.08 1378.8385 5725.1786 1378.6741 5725.1786" fill="#116fff"/>
          </g>
          <g id="Graphic_1307">
            <path d="M 1375.7712 5725.1786 C 1375.5415 5725.1786 1375.3561 5724.993 1375.3561 5724.7635 L 1375.3561 5724.2646 C 1375.3561 5724.035 1375.5415 5723.8495 1375.7712 5723.8495 C 1376.0006 5723.8495 1376.1862 5724.035 1376.1862 5724.2646 L 1376.1862 5724.7635 C 1376.1862 5724.993 1376.0006 5725.1786 1375.7712 5725.1786" fill="#116fff"/>
          </g>
          <g id="Graphic_1306">
            <path d="M 1377.4298 5725.1786 C 1377.2001 5725.1786 1377.0147 5724.993 1377.0147 5724.7635 L 1377.0147 5724.2646 C 1377.0147 5724.035 1377.2001 5723.8495 1377.4298 5723.8495 C 1377.6592 5723.8495 1377.8448 5724.035 1377.8448 5724.2646 L 1377.8448 5724.7635 C 1377.8448 5724.993 1377.6592 5725.1786 1377.4298 5725.1786" fill="#116fff"/>
          </g>
          <g id="Graphic_1305">
            <path d="M 1382.4062 5729.744 L 1381.9954 5729.744 C 1381.7658 5729.744 1381.5803 5729.5586 1381.5803 5729.329 C 1381.5803 5729.0995 1381.7658 5728.914 1381.9954 5728.914 L 1382.4062 5728.914 C 1382.6358 5728.914 1382.8213 5729.0995 1382.8213 5729.329 C 1382.8213 5729.5586 1382.6358 5729.744 1382.4062 5729.744" fill="#116fff"/>
          </g>
          <g id="Graphic_1304">
            <path d="M 1388.6329 5729.7446 L 1388.2196 5729.7446 C 1387.99 5729.7446 1387.8046 5729.559 1387.8046 5729.3296 C 1387.8046 5729.1 1387.99 5728.9145 1388.2196 5728.9145 L 1388.6329 5728.9145 C 1388.8625 5728.9145 1389.048 5729.1 1389.048 5729.3296 C 1389.048 5729.559 1388.8625 5729.7446 1388.6329 5729.7446" fill="#116fff"/>
          </g>
          <g id="Graphic_1303">
            <path d="M 1384.068 5728.082 C 1383.8386 5728.082 1383.653 5727.896 1383.653 5727.667 L 1383.653 5718.1246 C 1383.653 5717.895 1383.8386 5717.7096 1384.068 5717.7096 C 1384.2977 5717.7096 1384.4831 5717.895 1384.4831 5718.1246 L 1384.4831 5727.667 C 1384.4831 5727.896 1384.2977 5728.082 1384.068 5728.082" fill="#116fff"/>
          </g>
          <g id="Graphic_1302">
            <path d="M 1386.5584 5728.0824 C 1386.329 5728.0824 1386.1433 5727.897 1386.1433 5727.667 L 1386.1433 5718.1246 C 1386.1433 5717.895 1386.329 5717.7096 1386.5584 5717.7096 C 1386.788 5717.7096 1386.9734 5717.895 1386.9734 5718.1246 L 1386.9734 5727.667 C 1386.9734 5727.897 1386.788 5728.0824 1386.5584 5728.0824" fill="#116fff"/>
          </g>
          <g id="Graphic_1301">
            <path d="M 1384.068 5716.8795 C 1383.8386 5716.8795 1383.653 5716.694 1383.653 5716.4644 L 1383.653 5713.277 C 1383.653 5713.047 1383.8386 5712.862 1384.068 5712.862 C 1384.2977 5712.862 1384.4831 5713.047 1384.4831 5713.277 L 1384.4831 5716.4644 C 1384.4831 5716.694 1384.2977 5716.8795 1384.068 5716.8795" fill="#116fff"/>
          </g>
          <g id="Graphic_1300">
            <path d="M 1386.5584 5716.8795 C 1386.329 5716.8795 1386.1433 5716.694 1386.1433 5716.4644 L 1386.1433 5713.277 C 1386.1433 5713.047 1386.329 5712.862 1386.5584 5712.862 C 1386.788 5712.862 1386.9734 5713.047 1386.9734 5713.277 L 1386.9734 5716.4644 C 1386.9734 5716.694 1386.788 5716.8795 1386.5584 5716.8795" fill="#116fff"/>
          </g>
          <g id="Graphic_1299">
            <path d="M 1382.4062 5729.744 C 1382.1768 5729.744 1381.9911 5729.5586 1381.9911 5729.329 C 1381.9911 5729.0995 1382.1768 5728.914 1382.4062 5728.914 C 1383.0936 5728.914 1383.653 5728.3545 1383.653 5727.667 C 1383.653 5727.437 1383.8386 5727.252 1384.068 5727.252 C 1384.2977 5727.252 1384.4831 5727.437 1384.4831 5727.667 C 1384.4831 5728.8124 1383.5515 5729.744 1382.4062 5729.744" fill="#116fff"/>
          </g>
          <g id="Graphic_1298">
            <path d="M 1388.2196 5729.744 C 1387.074 5729.744 1386.1417 5728.8124 1386.1417 5727.667 C 1386.1417 5727.437 1386.3273 5727.252 1386.5568 5727.252 C 1386.7864 5727.252 1386.9718 5727.437 1386.9718 5727.667 C 1386.9718 5728.3545 1387.5318 5728.914 1388.2196 5728.914 C 1388.449 5728.914 1388.6347 5729.0995 1388.6347 5729.329 C 1388.6347 5729.5586 1388.449 5729.744 1388.2196 5729.744" fill="#116fff"/>
          </g>
          <g id="Graphic_1297">
            <path d="M 1389.781 5718.54 L 1380.8481 5718.54 C 1380.6185 5718.54 1380.433 5718.354 1380.433 5718.1246 C 1380.433 5717.895 1380.6185 5717.7096 1380.8481 5717.7096 L 1389.7806 5717.7096 C 1390.0102 5717.7096 1390.1956 5717.895 1390.1956 5718.1246 C 1390.1956 5718.354 1390.0102 5718.54 1389.781 5718.54" fill="#116fff"/>
          </g>
          <g id="Graphic_1296">
            <path d="M 1389.781 5716.8815 L 1380.8473 5716.8815 C 1380.6177 5716.8815 1380.4322 5716.696 1380.4322 5716.4664 C 1380.4322 5716.237 1380.6177 5716.0514 1380.8473 5716.0514 L 1389.7806 5716.0514 C 1390.0102 5716.0514 1390.1956 5716.237 1390.1956 5716.4664 C 1390.1956 5716.696 1390.0102 5716.8815 1389.781 5716.8815" fill="#116fff"/>
          </g>
          <g id="Graphic_1295">
            <path d="M 1379.9193 5718.957 C 1379.0037 5718.957 1378.259 5718.212 1378.259 5717.2965 C 1378.259 5716.381 1379.0037 5715.636 1379.9193 5715.636 C 1380.8347 5715.636 1381.5795 5716.381 1381.5795 5717.2965 C 1381.5795 5718.212 1380.8347 5718.957 1379.9193 5718.957 M 1379.9193 5716.4664 C 1379.4615 5716.4664 1379.0892 5716.839 1379.0892 5717.2965 C 1379.0892 5717.7544 1379.4615 5718.1267 1379.9193 5718.1267 C 1380.3771 5718.1267 1380.7494 5717.7544 1380.7494 5717.2965 C 1380.7494 5716.839 1380.3765 5716.4664 1379.9193 5716.4664" fill="#116fff"/>
          </g>
          <g id="Graphic_1294">
            <path d="M 1390.709 5718.957 C 1389.7935 5718.957 1389.0487 5718.212 1389.0487 5717.2965 C 1389.0487 5716.381 1389.7935 5715.636 1390.709 5715.636 C 1391.6246 5715.636 1392.3692 5716.381 1392.3692 5717.2965 C 1392.3692 5718.212 1391.6246 5718.957 1390.709 5718.957 M 1390.709 5716.4664 C 1390.2511 5716.4664 1389.8788 5716.839 1389.8788 5717.2965 C 1389.8788 5717.7544 1390.2511 5718.1267 1390.709 5718.1267 C 1391.1668 5718.1267 1391.539 5717.7544 1391.539 5717.2965 C 1391.539 5716.839 1391.1668 5716.4664 1390.709 5716.4664" fill="#116fff"/>
          </g>
          <g id="Graphic_1293">
            <path d="M 1385.3142 5713.9724 C 1383.4834 5713.9724 1381.9938 5712.483 1381.9938 5710.652 C 1381.9938 5708.821 1383.4834 5707.3315 1385.3142 5707.3315 C 1387.1449 5707.3315 1388.6347 5708.821 1388.6347 5710.652 C 1388.6347 5712.483 1387.1449 5713.9724 1385.3142 5713.9724 M 1385.3142 5708.1616 C 1383.9408 5708.1616 1382.8239 5709.2785 1382.8239 5710.652 C 1382.8239 5712.0254 1383.9408 5713.142 1385.3142 5713.142 C 1386.6875 5713.142 1387.8046 5712.0254 1387.8046 5710.652 C 1387.8046 5709.2785 1386.6875 5708.1616 1385.3142 5708.1616" fill="#116fff"/>
          </g>
          <g id="Graphic_1292">
            <path d="M 1385.3142 5712.312 C 1384.3986 5712.312 1383.654 5711.5676 1383.654 5710.652 C 1383.654 5709.7363 1384.3986 5708.992 1385.3142 5708.992 C 1386.2297 5708.992 1386.9745 5709.7363 1386.9745 5710.652 C 1386.9745 5711.5676 1386.2297 5712.312 1385.3142 5712.312 M 1385.3142 5709.822 C 1384.8564 5709.822 1384.4841 5710.194 1384.4841 5710.652 C 1384.4841 5711.11 1384.8564 5711.482 1385.3142 5711.482 C 1385.7718 5711.482 1386.1443 5711.11 1386.1443 5710.652 C 1386.1443 5710.194 1385.7718 5709.822 1385.3142 5709.822" fill="#116fff"/>
          </g>
          <g id="Graphic_1291">
            <path d="M 1391.1224 5711.067 L 1385.3142 5711.067 C 1385.0846 5711.067 1384.8992 5710.8816 1384.8992 5710.652 C 1384.8992 5710.4224 1385.0846 5710.237 1385.3142 5710.237 L 1391.1224 5710.237 C 1391.352 5710.237 1391.5375 5710.4224 1391.5375 5710.652 C 1391.5375 5710.8816 1391.352 5711.067 1391.1224 5711.067" fill="#116fff"/>
          </g>
          <g id="Graphic_1290">
            <path d="M 1391.1224 5714.389 C 1390.893 5714.389 1390.7073 5714.203 1390.7073 5713.9737 C 1390.7073 5713.744 1390.893 5713.5586 1391.1224 5713.5586 C 1391.809 5713.5586 1392.3676 5712.9994 1392.3676 5712.3126 C 1392.3676 5711.626 1391.809 5711.067 1391.1224 5711.067 C 1390.893 5711.067 1390.7073 5710.8816 1390.7073 5710.652 C 1390.7073 5710.4224 1390.893 5710.237 1391.1224 5710.237 C 1392.2668 5710.237 1393.1977 5711.168 1393.1977 5712.3126 C 1393.1977 5713.457 1392.2668 5714.389 1391.1224 5714.389" fill="#116fff"/>
          </g>
          <g id="Graphic_1289">
            <path d="M 1391.1232 5714.387 L 1386.5594 5714.387 C 1386.3298 5714.387 1386.1443 5714.201 1386.1443 5713.9716 C 1386.1443 5713.742 1386.3298 5713.5566 1386.5594 5713.5566 L 1391.1232 5713.5566 C 1391.3528 5713.5566 1391.5383 5713.742 1391.5383 5713.9716 C 1391.5383 5714.201 1391.3528 5714.387 1391.1232 5714.387" fill="#116fff"/>
          </g>
          <g id="Graphic_1288">
            <path d="M 1378.6733 5717.7084 C 1377.5285 5717.7084 1376.597 5716.777 1376.597 5715.633 C 1376.597 5714.488 1377.5285 5713.5566 1378.6733 5713.5566 C 1378.9027 5713.5566 1379.0884 5713.742 1379.0884 5713.9716 C 1379.0884 5714.201 1378.9027 5714.387 1378.6733 5714.387 C 1377.9863 5714.387 1377.4271 5714.946 1377.4271 5715.633 C 1377.4271 5716.319 1377.9863 5716.878 1378.6733 5716.878 C 1378.9027 5716.878 1379.0884 5717.064 1379.0884 5717.293 C 1379.0884 5717.523 1378.9027 5717.7084 1378.6733 5717.7084" fill="#116fff"/>
          </g>
          <g id="Graphic_1287">
            <path d="M 1384.069 5714.389 L 1378.6733 5714.389 C 1378.4437 5714.389 1378.2583 5714.203 1378.2583 5713.9737 C 1378.2583 5713.744 1378.4437 5713.5586 1378.6733 5713.5586 L 1384.069 5713.5586 C 1384.2985 5713.5586 1384.4841 5713.744 1384.4841 5713.9737 C 1384.4841 5714.203 1384.2985 5714.389 1384.069 5714.389" fill="#116fff"/>
          </g>
          <g id="Graphic_1286">
            <path d="M 1381.997 5724.349 C 1380.8524 5724.349 1379.9209 5723.418 1379.9209 5722.2736 C 1379.9209 5721.129 1380.8524 5720.1975 1381.997 5720.1975 C 1382.2264 5720.1975 1382.412 5720.383 1382.412 5720.6125 C 1382.412 5720.842 1382.2264 5721.0276 1381.997 5721.0276 C 1381.31 5721.0276 1380.751 5721.587 1380.751 5722.2736 C 1380.751 5722.96 1381.31 5723.519 1381.997 5723.519 C 1382.2264 5723.519 1382.412 5723.705 1382.412 5723.934 C 1382.412 5724.164 1382.2264 5724.349 1381.997 5724.349" fill="#116fff"/>
          </g>
          <g id="Graphic_1285">
            <path d="M 1384.069 5721.0296 L 1381.997 5721.0296 C 1381.7674 5721.0296 1381.582 5720.844 1381.582 5720.6146 C 1381.582 5720.385 1381.7674 5720.1995 1381.997 5720.1995 L 1384.069 5720.1995 C 1384.2985 5720.1995 1384.4841 5720.385 1384.4841 5720.6146 C 1384.4841 5720.844 1384.2985 5721.0296 1384.069 5721.0296" fill="#116fff"/>
          </g>
          <g id="Graphic_1284">
            <path d="M 1391.9551 5721.029 C 1391.7255 5721.029 1391.5401 5720.8434 1391.5401 5720.614 C 1391.5401 5720.3843 1391.7255 5720.199 1391.9551 5720.199 C 1392.6416 5720.199 1393.2003 5719.6396 1393.2003 5718.953 C 1393.2003 5718.266 1392.6416 5717.707 1391.9551 5717.707 C 1391.7255 5717.707 1391.5401 5717.5215 1391.5401 5717.292 C 1391.5401 5717.0625 1391.7255 5716.877 1391.9551 5716.877 C 1393.0994 5716.877 1394.0304 5717.808 1394.0304 5718.953 C 1394.0304 5720.0974 1393.0994 5721.029 1391.9551 5721.029" fill="#116fff"/>
          </g>
          <g id="Graphic_1283">
            <path d="M 1391.9551 5721.027 L 1386.5594 5721.027 C 1386.3298 5721.027 1386.1443 5720.841 1386.1443 5720.612 C 1386.1443 5720.382 1386.3298 5720.197 1386.5594 5720.197 L 1391.9551 5720.197 C 1392.1846 5720.197 1392.3702 5720.382 1392.3702 5720.612 C 1392.3702 5720.841 1392.1846 5721.027 1391.9551 5721.027" fill="#116fff"/>
          </g>
          <g id="Graphic_1282">
            <path d="M 1384.069 5724.349 L 1381.997 5724.349 C 1381.7674 5724.349 1381.582 5724.164 1381.582 5723.934 C 1381.582 5723.705 1381.7674 5723.519 1381.997 5723.519 L 1384.069 5723.519 C 1384.2985 5723.519 1384.4841 5723.705 1384.4841 5723.934 C 1384.4841 5724.164 1384.2985 5724.349 1384.069 5724.349" fill="#116fff"/>
          </g>
          <g id="Graphic_1281">
            <path d="M 1387.7995 5727.6714 C 1387.5699 5727.6714 1387.3844 5727.486 1387.3844 5727.256 C 1387.3844 5727.027 1387.5699 5726.841 1387.7995 5726.841 C 1388.4863 5726.841 1389.0455 5726.282 1389.0455 5725.595 C 1389.0455 5724.909 1388.4863 5724.35 1387.7995 5724.35 C 1387.5699 5724.35 1387.3844 5724.164 1387.3844 5723.9346 C 1387.3844 5723.705 1387.5699 5723.5196 1387.7995 5723.5196 C 1388.9442 5723.5196 1389.8756 5724.4506 1389.8756 5725.595 C 1389.8756 5726.74 1388.9442 5727.6714 1387.7995 5727.6714" fill="#116fff"/>
          </g>
          <g id="Graphic_1280">
            <path d="M 1387.7995 5727.669 L 1386.5584 5727.669 C 1386.329 5727.669 1386.1433 5727.484 1386.1433 5727.254 C 1386.1433 5727.0247 1386.329 5726.839 1386.5584 5726.839 L 1387.7995 5726.839 C 1388.029 5726.839 1388.2146 5727.0247 1388.2146 5727.254 C 1388.2146 5727.484 1388.029 5727.669 1387.7995 5727.669" fill="#116fff"/>
          </g>
          <g id="Graphic_1279">
            <path d="M 1387.7995 5724.35 L 1386.5584 5724.35 C 1386.329 5724.35 1386.1433 5724.164 1386.1433 5723.9346 C 1386.1433 5723.705 1386.329 5723.5196 1386.5584 5723.5196 L 1387.7995 5723.5196 C 1388.029 5723.5196 1388.2146 5723.705 1388.2146 5723.9346 C 1388.2146 5724.164 1388.029 5724.35 1387.7995 5724.35" fill="#116fff"/>
          </g>
          <g id="Graphic_1278">
            <path d="M 1386.1425 5731.403 C 1386.0363 5731.403 1385.9301 5731.3625 1385.849 5731.2816 L 1384.1907 5729.6226 C 1384.0283 5729.46 1384.0283 5729.198 1384.1907 5729.036 C 1384.3528 5728.8734 1384.6152 5728.8734 1384.7774 5729.036 L 1386.436 5730.695 C 1386.5983 5730.857 1386.5983 5731.119 1386.436 5731.2816 C 1386.3551 5731.3625 1386.249 5731.403 1386.1425 5731.403" fill="#116fff"/>
          </g>
          <g id="Graphic_1277">
            <path d="M 1384.4857 5731.403 C 1384.3793 5731.403 1384.2731 5731.3625 1384.1923 5731.2816 C 1384.03 5731.119 1384.03 5730.857 1384.1923 5730.695 L 1385.8509 5729.036 C 1386.013 5728.874 1386.2755 5728.874 1386.4376 5729.036 C 1386.6 5729.1984 1386.6 5729.461 1386.4376 5729.623 L 1384.7792 5731.2816 C 1384.6981 5731.3625 1384.592 5731.403 1384.4857 5731.403" fill="#116fff"/>
          </g>
        </g>
        <g id="Group_1228">
          <g id="Graphic_1275">
            <path d="M 1272.06 5722.3865 C 1271.6315 5722.3865 1271.2854 5722.0404 1271.2854 5721.612 C 1271.2854 5719.903 1272.6751 5718.513 1274.3841 5718.513 C 1274.8123 5718.513 1275.1588 5718.859 1275.1588 5719.288 C 1275.1588 5719.716 1274.8123 5720.0624 1274.3841 5720.0624 C 1273.5296 5720.0624 1272.8347 5720.757 1272.8347 5721.612 C 1272.8347 5722.0404 1272.4883 5722.3865 1272.06 5722.3865" fill="#116fff"/>
          </g>
          <g id="Graphic_1274">
            <path d="M 1272.06 5722.3865 C 1271.6315 5722.3865 1271.2854 5722.0404 1271.2854 5721.612 C 1271.2854 5720.757 1270.5902 5720.0624 1269.736 5720.0624 C 1269.3075 5720.0624 1268.9614 5719.716 1268.9614 5719.288 C 1268.9614 5718.859 1269.3075 5718.513 1269.736 5718.513 C 1271.4446 5718.513 1272.8347 5719.903 1272.8347 5721.612 C 1272.8347 5722.0404 1272.4883 5722.3865 1272.06 5722.3865" fill="#116fff"/>
          </g>
          <g id="Graphic_1273">
            <path d="M 1275.927 5720.0624 C 1275.4988 5720.0624 1275.1523 5719.716 1275.1523 5719.288 C 1275.1523 5718.859 1275.4988 5718.513 1275.927 5718.513 C 1283.1888 5718.513 1289.0964 5712.6055 1289.0964 5705.3437 C 1289.0964 5704.915 1289.443 5704.569 1289.8711 5704.569 C 1290.2997 5704.569 1290.6458 5704.915 1290.6458 5705.3437 C 1290.6458 5713.46 1284.0433 5720.0624 1275.927 5720.0624 L 1275.927 5720.0624" fill="#116fff"/>
          </g>
          <g id="Graphic_1272">
            <path d="M 1278.254 5714.64 C 1277.8259 5714.64 1277.4794 5714.2936 1277.4794 5713.865 C 1277.4794 5713.4365 1277.8259 5713.0904 1278.254 5713.0904 C 1282.5257 5713.0904 1286.0008 5709.615 1286.0008 5705.3437 C 1286.0008 5704.915 1286.3473 5704.569 1286.7754 5704.569 C 1287.204 5704.569 1287.5501 5704.915 1287.5501 5705.3437 C 1287.5501 5710.47 1283.3802 5714.64 1278.254 5714.64" fill="#116fff"/>
          </g>
          <g id="Graphic_1271">
            <path d="M 1275.927 5720.0624 L 1274.3841 5720.0624 C 1273.9555 5720.0624 1273.6094 5719.716 1273.6094 5719.288 C 1273.6094 5718.859 1273.9555 5718.513 1274.3841 5718.513 L 1275.927 5718.513 C 1276.3556 5718.513 1276.7017 5718.859 1276.7017 5719.288 C 1276.7017 5719.716 1276.3556 5720.0624 1275.927 5720.0624" fill="#116fff"/>
          </g>
          <g id="Graphic_1270">
            <path d="M 1284.4522 5706.118 C 1284.3251 5706.118 1284.1957 5706.087 1284.0773 5706.021 C 1283.7032 5705.813 1283.5686 5705.3414 1283.7759 5704.968 L 1287.6492 5697.994 C 1287.8569 5697.62 1288.329 5697.484 1288.7023 5697.692 C 1289.0764 5697.9 1289.211 5698.3716 1289.0034 5698.745 L 1285.13 5705.719 C 1284.9886 5705.974 1284.7249 5706.118 1284.4522 5706.118" fill="#116fff"/>
          </g>
          <g id="Graphic_1269">
            <path d="M 1292.2004 5706.118 C 1291.9281 5706.118 1291.6644 5705.974 1291.5226 5705.719 L 1287.6492 5698.745 C 1287.4412 5698.3716 1287.5758 5697.899 1287.9507 5697.692 C 1288.324 5697.483 1288.7969 5697.619 1289.0034 5697.994 L 1292.8768 5704.968 C 1293.0852 5705.3414 1292.9505 5705.814 1292.5757 5706.021 C 1292.4569 5706.087 1292.3275 5706.118 1292.2004 5706.118 L 1292.2004 5706.118" fill="#116fff"/>
          </g>
          <g id="Graphic_1268">
            <path d="M 1292.1997 5706.118 C 1292.1036 5706.118 1292.006 5706.101 1291.9118 5706.0635 L 1288.3263 5704.627 L 1284.7412 5706.0635 C 1284.344 5706.221 1283.8931 5706.029 1283.7335 5705.632 C 1283.5746 5705.234 1283.7675 5704.7835 1284.1651 5704.624 L 1288.0385 5703.073 C 1288.2242 5702.999 1288.4288 5702.999 1288.6145 5703.073 L 1292.4879 5704.624 C 1292.8855 5704.7835 1293.0784 5705.234 1292.9195 5705.632 C 1292.7977 5705.935 1292.5072 5706.118 1292.1997 5706.118 L 1292.1997 5706.118" fill="#116fff"/>
          </g>
          <g id="Graphic_1267">
            <path d="M 1289.8711 5706.118 C 1289.443 5706.118 1289.0964 5705.772 1289.0964 5705.3437 L 1289.0964 5704.4124 C 1289.0964 5703.984 1289.443 5703.638 1289.8711 5703.638 C 1290.2997 5703.638 1290.6458 5703.984 1290.6458 5704.4124 L 1290.6458 5705.3437 C 1290.6458 5705.772 1290.2997 5706.118 1289.8711 5706.118" fill="#116fff"/>
          </g>
          <g id="Graphic_1266">
            <path d="M 1286.7754 5706.118 C 1286.3473 5706.118 1286.0008 5705.772 1286.0008 5705.3437 L 1286.0008 5704.4124 C 1286.0008 5703.984 1286.3473 5703.638 1286.7754 5703.638 C 1287.204 5703.638 1287.5501 5703.984 1287.5501 5704.4124 L 1287.5501 5705.3437 C 1287.5501 5705.772 1287.204 5706.118 1286.7754 5706.118" fill="#116fff"/>
          </g>
          <g id="Graphic_1265">
            <path d="M 1268.1928 5720.062 C 1260.0765 5720.062 1253.474 5713.459 1253.474 5705.343 C 1253.474 5704.914 1253.82 5704.568 1254.2486 5704.568 C 1254.6768 5704.568 1255.0233 5704.914 1255.0233 5705.343 C 1255.0233 5712.605 1260.931 5718.5123 1268.1928 5718.5123 C 1268.621 5718.5123 1268.9674 5718.8584 1268.9674 5719.287 C 1268.9674 5719.715 1268.621 5720.062 1268.1928 5720.062" fill="#116fff"/>
          </g>
          <g id="Graphic_1264">
            <path d="M 1265.8657 5714.639 C 1260.7395 5714.639 1256.5696 5710.469 1256.5696 5705.343 C 1256.5696 5704.914 1256.9157 5704.568 1257.3443 5704.568 C 1257.7725 5704.568 1258.119 5704.914 1258.119 5705.343 C 1258.119 5709.6146 1261.594 5713.0896 1265.8657 5713.0896 C 1266.2939 5713.0896 1266.6404 5713.436 1266.6404 5713.864 C 1266.6404 5714.2925 1266.2939 5714.639 1265.8657 5714.639" fill="#116fff"/>
          </g>
          <g id="Graphic_1263">
            <path d="M 1269.736 5720.062 L 1268.1928 5720.062 C 1267.7642 5720.062 1267.4181 5719.715 1267.4181 5719.287 C 1267.4181 5718.8584 1267.7642 5718.5123 1268.1928 5718.5123 L 1269.736 5718.5123 C 1270.1642 5718.5123 1270.5107 5718.8584 1270.5107 5719.287 C 1270.5107 5719.715 1270.1642 5720.062 1269.736 5720.062" fill="#116fff"/>
          </g>
          <g id="Graphic_1262">
            <path d="M 1259.6676 5706.1176 C 1259.3948 5706.1176 1259.1312 5705.9735 1258.9897 5705.7185 L 1255.1164 5698.744 C 1254.908 5698.371 1255.0426 5697.8984 1255.4175 5697.6915 C 1255.7908 5697.4816 1256.2636 5697.6185 1256.4705 5697.993 L 1260.3439 5704.967 C 1260.552 5705.3406 1260.4173 5705.813 1260.0424 5706.02 C 1259.924 5706.0866 1259.7947 5706.1176 1259.6676 5706.1176" fill="#116fff"/>
          </g>
          <g id="Graphic_1261">
            <path d="M 1251.9193 5706.1176 C 1251.7922 5706.1176 1251.6629 5706.0866 1251.5441 5706.02 C 1251.17 5705.812 1251.0353 5705.3406 1251.243 5704.967 L 1255.1164 5697.993 C 1255.324 5697.619 1255.7957 5697.482 1256.169 5697.6915 C 1256.5432 5697.899 1256.6778 5698.371 1256.4705 5698.744 L 1252.5972 5705.7185 C 1252.4553 5705.9735 1252.1917 5706.1176 1251.9193 5706.1176 L 1251.9193 5706.1176" fill="#116fff"/>
          </g>
          <g id="Graphic_1260">
            <path d="M 1259.6668 5706.1176 C 1259.5707 5706.1176 1259.4731 5706.1006 1259.3786 5706.063 L 1255.7934 5704.6265 L 1252.208 5706.063 C 1251.8108 5706.221 1251.3599 5706.028 1251.2003 5705.631 C 1251.0414 5705.2336 1251.2343 5704.783 1251.6318 5704.623 L 1255.5052 5703.072 C 1255.691 5702.998 1255.8956 5702.998 1256.0813 5703.072 L 1259.9547 5704.623 C 1260.3522 5704.783 1260.5451 5705.2336 1260.3863 5705.631 C 1260.2641 5705.934 1259.9736 5706.1176 1259.6668 5706.1176" fill="#116fff"/>
          </g>
          <g id="Graphic_1259">
            <path d="M 1254.2486 5706.1176 C 1253.82 5706.1176 1253.474 5705.771 1253.474 5705.343 L 1253.474 5704.4116 C 1253.474 5703.9834 1253.82 5703.637 1254.2486 5703.637 C 1254.6768 5703.637 1255.0233 5703.9834 1255.0233 5704.4116 L 1255.0233 5705.343 C 1255.0233 5705.771 1254.6768 5706.1176 1254.2486 5706.1176" fill="#116fff"/>
          </g>
          <g id="Graphic_1258">
            <path d="M 1257.3443 5706.1176 C 1256.9157 5706.1176 1256.5696 5705.771 1256.5696 5705.343 L 1256.5696 5704.4116 C 1256.5696 5703.9834 1256.9157 5703.637 1257.3443 5703.637 C 1257.7725 5703.637 1258.119 5703.9834 1258.119 5704.4116 L 1258.119 5705.343 C 1258.119 5705.771 1257.7725 5706.1176 1257.3443 5706.1176" fill="#116fff"/>
          </g>
          <g id="Graphic_1257">
            <path d="M 1266.6324 5714.639 L 1265.8657 5714.639 C 1265.4371 5714.639 1265.091 5714.2925 1265.091 5713.864 C 1265.091 5713.436 1265.4371 5713.0896 1265.8657 5713.0896 L 1266.6324 5713.0896 C 1267.061 5713.0896 1267.4071 5713.436 1267.4071 5713.864 C 1267.4071 5714.2925 1267.061 5714.639 1266.6324 5714.639" fill="#116fff"/>
          </g>
          <g id="Graphic_1256">
            <path d="M 1278.254 5714.64 L 1277.4828 5714.64 C 1277.0542 5714.64 1276.7081 5714.2936 1276.7081 5713.865 C 1276.7081 5713.4365 1277.0542 5713.0904 1277.4828 5713.0904 L 1278.254 5713.0904 C 1278.6826 5713.0904 1279.0287 5713.4365 1279.0287 5713.865 C 1279.0287 5714.2936 1278.6826 5714.64 1278.254 5714.64" fill="#116fff"/>
          </g>
          <g id="Graphic_1255">
            <path d="M 1269.7342 5711.5365 C 1269.306 5711.5365 1268.9595 5711.19 1268.9595 5710.762 L 1268.9595 5692.952 C 1268.9595 5692.524 1269.306 5692.177 1269.7342 5692.177 C 1270.1627 5692.177 1270.5088 5692.524 1270.5088 5692.952 L 1270.5088 5710.762 C 1270.5088 5711.19 1270.1627 5711.5365 1269.7342 5711.5365" fill="#116fff"/>
          </g>
          <g id="Graphic_1254">
            <path d="M 1274.3822 5711.537 C 1273.954 5711.537 1273.6075 5711.191 1273.6075 5710.7626 L 1273.6075 5692.952 C 1273.6075 5692.524 1273.954 5692.177 1274.3822 5692.177 C 1274.8108 5692.177 1275.1569 5692.524 1275.1569 5692.952 L 1275.1569 5710.7626 C 1275.1569 5711.191 1274.8108 5711.537 1274.3822 5711.537" fill="#116fff"/>
          </g>
          <g id="Graphic_1253">
            <path d="M 1269.7342 5690.628 C 1269.306 5690.628 1268.9595 5690.282 1268.9595 5689.853 L 1268.9595 5683.904 C 1268.9595 5683.4754 1269.306 5683.129 1269.7342 5683.129 C 1270.1627 5683.129 1270.5088 5683.4754 1270.5088 5683.904 L 1270.5088 5689.853 C 1270.5088 5690.282 1270.1627 5690.628 1269.7342 5690.628" fill="#116fff"/>
          </g>
          <g id="Graphic_1252">
            <path d="M 1274.3822 5690.628 C 1273.954 5690.628 1273.6075 5690.282 1273.6075 5689.853 L 1273.6075 5683.904 C 1273.6075 5683.4754 1273.954 5683.129 1274.3822 5683.129 C 1274.8108 5683.129 1275.1569 5683.4754 1275.1569 5683.904 L 1275.1569 5689.853 C 1275.1569 5690.282 1274.8108 5690.628 1274.3822 5690.628" fill="#116fff"/>
          </g>
          <g id="Graphic_1251">
            <path d="M 1266.6324 5714.639 C 1266.2042 5714.639 1265.8578 5714.2925 1265.8578 5713.864 C 1265.8578 5713.436 1266.2042 5713.0896 1266.6324 5713.0896 C 1267.9155 5713.0896 1268.9595 5712.045 1268.9595 5710.762 C 1268.9595 5710.333 1269.306 5709.987 1269.7342 5709.987 C 1270.1627 5709.987 1270.5088 5710.333 1270.5088 5710.762 C 1270.5088 5712.9 1268.77 5714.639 1266.6324 5714.639" fill="#116fff"/>
          </g>
          <g id="Graphic_1250">
            <path d="M 1277.4828 5714.639 C 1275.3445 5714.639 1273.6045 5712.9 1273.6045 5710.762 C 1273.6045 5710.333 1273.951 5709.987 1274.3792 5709.987 C 1274.8077 5709.987 1275.1538 5710.333 1275.1538 5710.762 C 1275.1538 5712.045 1276.199 5713.0896 1277.4828 5713.0896 C 1277.911 5713.0896 1278.2574 5713.436 1278.2574 5713.864 C 1278.2574 5714.2925 1277.911 5714.639 1277.4828 5714.639" fill="#116fff"/>
          </g>
          <g id="Graphic_1249">
            <path d="M 1280.3969 5693.7266 L 1263.7244 5693.7266 C 1263.2958 5693.7266 1262.9497 5693.3805 1262.9497 5692.952 C 1262.9497 5692.524 1263.2958 5692.177 1263.7244 5692.177 L 1280.3961 5692.177 C 1280.8247 5692.177 1281.1708 5692.524 1281.1708 5692.952 C 1281.1708 5693.3805 1280.8247 5693.7266 1280.3969 5693.7266" fill="#116fff"/>
          </g>
          <g id="Graphic_1248">
            <path d="M 1280.3969 5690.632 L 1263.7229 5690.632 C 1263.2943 5690.632 1262.9482 5690.2856 1262.9482 5689.857 C 1262.9482 5689.429 1263.2943 5689.082 1263.7229 5689.082 L 1280.3961 5689.082 C 1280.8247 5689.082 1281.1708 5689.429 1281.1708 5689.857 C 1281.1708 5690.2856 1280.8247 5690.632 1280.3969 5690.632" fill="#116fff"/>
          </g>
          <g id="Graphic_1247">
            <path d="M 1261.9908 5694.505 C 1260.2819 5694.505 1258.8921 5693.115 1258.8921 5691.4064 C 1258.8921 5689.698 1260.2819 5688.3077 1261.9908 5688.3077 C 1263.6994 5688.3077 1265.0895 5689.698 1265.0895 5691.4064 C 1265.0895 5693.115 1263.6994 5694.505 1261.9908 5694.505 M 1261.9908 5689.857 C 1261.1363 5689.857 1260.4415 5690.552 1260.4415 5691.4064 C 1260.4415 5692.261 1261.1363 5692.956 1261.9908 5692.956 C 1262.8453 5692.956 1263.5402 5692.261 1263.5402 5691.4064 C 1263.5402 5690.552 1262.8442 5689.857 1261.9908 5689.857" fill="#116fff"/>
          </g>
          <g id="Graphic_1246">
            <path d="M 1282.1289 5694.505 C 1280.4203 5694.505 1279.0302 5693.115 1279.0302 5691.4064 C 1279.0302 5689.698 1280.4203 5688.3077 1282.1289 5688.3077 C 1283.8379 5688.3077 1285.2276 5689.698 1285.2276 5691.4064 C 1285.2276 5693.115 1283.8379 5694.505 1282.1289 5694.505 M 1282.1289 5689.857 C 1281.2744 5689.857 1280.5796 5690.552 1280.5796 5691.4064 C 1280.5796 5692.261 1281.2744 5692.956 1282.1289 5692.956 C 1282.9834 5692.956 1283.6783 5692.261 1283.6783 5691.4064 C 1283.6783 5690.552 1282.9834 5689.857 1282.1289 5689.857" fill="#116fff"/>
          </g>
          <g id="Graphic_1245">
            <path d="M 1272.06 5685.202 C 1268.6429 5685.202 1265.8627 5682.422 1265.8627 5679.005 C 1265.8627 5675.5876 1268.6429 5672.8074 1272.06 5672.8074 C 1275.4769 5672.8074 1278.2574 5675.5876 1278.2574 5679.005 C 1278.2574 5682.422 1275.4769 5685.202 1272.06 5685.202 M 1272.06 5674.357 C 1269.4966 5674.357 1267.412 5676.441 1267.412 5679.005 C 1267.412 5681.568 1269.4966 5683.653 1272.06 5683.653 C 1274.6231 5683.653 1276.7081 5681.568 1276.7081 5679.005 C 1276.7081 5676.441 1274.6231 5674.357 1272.06 5674.357" fill="#116fff"/>
          </g>
          <g id="Graphic_1244">
            <path d="M 1272.06 5682.1035 C 1270.3511 5682.1035 1268.9614 5680.714 1268.9614 5679.005 C 1268.9614 5677.296 1270.3511 5675.906 1272.06 5675.906 C 1273.7687 5675.906 1275.1588 5677.296 1275.1588 5679.005 C 1275.1588 5680.714 1273.7687 5682.1035 1272.06 5682.1035 M 1272.06 5677.4554 C 1271.2056 5677.4554 1270.5107 5678.15 1270.5107 5679.005 C 1270.5107 5679.859 1271.2056 5680.554 1272.06 5680.554 C 1272.9142 5680.554 1273.6094 5679.859 1273.6094 5679.005 C 1273.6094 5678.15 1272.9142 5677.4554 1272.06 5677.4554" fill="#116fff"/>
          </g>
          <g id="Graphic_1243">
            <path d="M 1282.9006 5679.7794 L 1272.06 5679.7794 C 1271.6315 5679.7794 1271.2854 5679.4333 1271.2854 5679.005 C 1271.2854 5678.576 1271.6315 5678.23 1272.06 5678.23 L 1282.9006 5678.23 C 1283.3291 5678.23 1283.6752 5678.576 1283.6752 5679.005 C 1283.6752 5679.4333 1283.3291 5679.7794 1282.9006 5679.7794" fill="#116fff"/>
          </g>
          <g id="Graphic_1242">
            <path d="M 1282.9006 5685.979 C 1282.4724 5685.979 1282.1259 5685.633 1282.1259 5685.2044 C 1282.1259 5684.776 1282.4724 5684.43 1282.9006 5684.43 C 1284.1821 5684.43 1285.2246 5683.386 1285.2246 5682.104 C 1285.2246 5680.823 1284.1821 5679.7794 1282.9006 5679.7794 C 1282.4724 5679.7794 1282.1259 5679.4333 1282.1259 5679.005 C 1282.1259 5678.576 1282.4724 5678.23 1282.9006 5678.23 C 1285.0366 5678.23 1286.774 5679.968 1286.774 5682.104 C 1286.774 5684.2406 1285.0366 5685.979 1282.9006 5685.979" fill="#116fff"/>
          </g>
          <g id="Graphic_1241">
            <path d="M 1282.9021 5685.975 L 1274.3841 5685.975 C 1273.9555 5685.975 1273.6094 5685.629 1273.6094 5685.2006 C 1273.6094 5684.772 1273.9555 5684.426 1274.3841 5684.426 L 1282.9021 5684.426 C 1283.3306 5684.426 1283.6768 5684.772 1283.6768 5685.2006 C 1283.6768 5685.629 1283.3306 5685.975 1282.9021 5685.975" fill="#116fff"/>
          </g>
          <g id="Graphic_1240">
            <path d="M 1259.6653 5692.175 C 1257.5285 5692.175 1255.79 5690.437 1255.79 5688.301 C 1255.79 5686.1644 1257.5285 5684.426 1259.6653 5684.426 C 1260.0935 5684.426 1260.44 5684.772 1260.44 5685.2006 C 1260.44 5685.629 1260.0935 5685.975 1259.6653 5685.975 C 1258.383 5685.975 1257.3394 5687.019 1257.3394 5688.301 C 1257.3394 5689.582 1258.383 5690.6256 1259.6653 5690.6256 C 1260.0935 5690.6256 1260.44 5690.972 1260.44 5691.4 C 1260.44 5691.829 1260.0935 5692.175 1259.6653 5692.175" fill="#116fff"/>
          </g>
          <g id="Graphic_1239">
            <path d="M 1269.736 5685.979 L 1259.6653 5685.979 C 1259.2367 5685.979 1258.8906 5685.633 1258.8906 5685.2044 C 1258.8906 5684.776 1259.2367 5684.43 1259.6653 5684.43 L 1269.736 5684.43 C 1270.1642 5684.43 1270.5107 5684.776 1270.5107 5685.2044 C 1270.5107 5685.633 1270.1642 5685.979 1269.736 5685.979" fill="#116fff"/>
          </g>
          <g id="Graphic_1238">
            <path d="M 1265.8687 5704.57 C 1263.7323 5704.57 1261.9939 5702.832 1261.9939 5700.6956 C 1261.9939 5698.559 1263.7323 5696.821 1265.8687 5696.821 C 1266.2969 5696.821 1266.6434 5697.167 1266.6434 5697.5954 C 1266.6434 5698.0236 1266.2969 5698.37 1265.8687 5698.37 C 1264.5864 5698.37 1263.5432 5699.414 1263.5432 5700.6956 C 1263.5432 5701.977 1264.5864 5703.0204 1265.8687 5703.0204 C 1266.2969 5703.0204 1266.6434 5703.367 1266.6434 5703.795 C 1266.6434 5704.2236 1266.2969 5704.57 1265.8687 5704.57" fill="#116fff"/>
          </g>
          <g id="Graphic_1237">
            <path d="M 1269.736 5698.374 L 1265.8687 5698.374 C 1265.4402 5698.374 1265.094 5698.028 1265.094 5697.599 C 1265.094 5697.171 1265.4402 5696.8245 1265.8687 5696.8245 L 1269.736 5696.8245 C 1270.1642 5696.8245 1270.5107 5697.171 1270.5107 5697.599 C 1270.5107 5698.028 1270.1642 5698.374 1269.736 5698.374" fill="#116fff"/>
          </g>
          <g id="Graphic_1236">
            <path d="M 1284.4548 5698.3724 C 1284.0263 5698.3724 1283.6802 5698.026 1283.6802 5697.598 C 1283.6802 5697.1695 1284.0263 5696.823 1284.4548 5696.823 C 1285.736 5696.823 1286.7789 5695.7794 1286.7789 5694.4975 C 1286.7789 5693.216 1285.736 5692.173 1284.4548 5692.173 C 1284.0263 5692.173 1283.6802 5691.826 1283.6802 5691.398 C 1283.6802 5690.9695 1284.0263 5690.6234 1284.4548 5690.6234 C 1286.5905 5690.6234 1288.3282 5692.361 1288.3282 5694.4975 C 1288.3282 5696.634 1286.5905 5698.3724 1284.4548 5698.3724" fill="#116fff"/>
          </g>
          <g id="Graphic_1235">
            <path d="M 1284.4548 5698.3686 L 1274.3841 5698.3686 C 1273.9555 5698.3686 1273.6094 5698.022 1273.6094 5697.594 C 1273.6094 5697.165 1273.9555 5696.819 1274.3841 5696.819 L 1284.4548 5696.819 C 1284.883 5696.819 1285.2295 5697.165 1285.2295 5697.594 C 1285.2295 5698.022 1284.883 5698.3686 1284.4548 5698.3686" fill="#116fff"/>
          </g>
          <g id="Graphic_1234">
            <path d="M 1269.736 5704.57 L 1265.8687 5704.57 C 1265.4402 5704.57 1265.094 5704.2236 1265.094 5703.795 C 1265.094 5703.367 1265.4402 5703.0204 1265.8687 5703.0204 L 1269.736 5703.0204 C 1270.1642 5703.0204 1270.5107 5703.367 1270.5107 5703.795 C 1270.5107 5704.2236 1270.1642 5704.57 1269.736 5704.57" fill="#116fff"/>
          </g>
          <g id="Graphic_1233">
            <path d="M 1276.6986 5710.77 C 1276.2701 5710.77 1275.924 5710.424 1275.924 5709.9955 C 1275.924 5709.567 1276.2701 5709.221 1276.6986 5709.221 C 1277.9806 5709.221 1279.0242 5708.1776 1279.0242 5706.895 C 1279.0242 5705.614 1277.9806 5704.5705 1276.6986 5704.5705 C 1276.2701 5704.5705 1275.924 5704.2244 1275.924 5703.796 C 1275.924 5703.3676 1276.2701 5703.021 1276.6986 5703.021 C 1278.835 5703.021 1280.5735 5704.759 1280.5735 5706.895 C 1280.5735 5709.032 1278.835 5710.77 1276.6986 5710.77" fill="#116fff"/>
          </g>
          <g id="Graphic_1232">
            <path d="M 1276.6986 5710.7664 L 1274.3822 5710.7664 C 1273.954 5710.7664 1273.6075 5710.42 1273.6075 5709.992 C 1273.6075 5709.563 1273.954 5709.217 1274.3822 5709.217 L 1276.6986 5709.217 C 1277.1268 5709.217 1277.4733 5709.563 1277.4733 5709.992 C 1277.4733 5710.42 1277.1268 5710.7664 1276.6986 5710.7664" fill="#116fff"/>
          </g>
          <g id="Graphic_1231">
            <path d="M 1276.6986 5704.5705 L 1274.3822 5704.5705 C 1273.954 5704.5705 1273.6075 5704.2244 1273.6075 5703.796 C 1273.6075 5703.3676 1273.954 5703.021 1274.3822 5703.021 L 1276.6986 5703.021 C 1277.1268 5703.021 1277.4733 5703.3676 1277.4733 5703.796 C 1277.4733 5704.2244 1277.1268 5704.5705 1276.6986 5704.5705" fill="#116fff"/>
          </g>
          <g id="Graphic_1230">
            <path d="M 1273.606 5717.7354 C 1273.4078 5717.7354 1273.2096 5717.6594 1273.0583 5717.5084 L 1269.963 5714.412 C 1269.66 5714.109 1269.66 5713.6196 1269.963 5713.3166 C 1270.2656 5713.0136 1270.7555 5713.0136 1271.058 5713.3166 L 1274.1537 5716.413 C 1274.4567 5716.716 1274.4567 5717.2055 1274.1537 5717.5084 C 1274.0028 5717.6594 1273.8046 5717.7354 1273.606 5717.7354" fill="#116fff"/>
          </g>
          <g id="Graphic_1229">
            <path d="M 1270.5137 5717.7354 C 1270.3152 5717.7354 1270.117 5717.6594 1269.966 5717.5084 C 1269.663 5717.2055 1269.663 5716.716 1269.966 5716.413 L 1273.0617 5713.3173 C 1273.3643 5713.0144 1273.8541 5713.0144 1274.1567 5713.3173 C 1274.4597 5713.62 1274.4597 5714.11 1274.1567 5714.413 L 1271.0615 5717.5084 C 1270.9102 5717.6594 1270.712 5717.7354 1270.5137 5717.7354" fill="#116fff"/>
          </g>
        </g>
      </g>
    </g>
  </g>
</svg>
